<svg width="100" height="36" viewBox="0 0 100 36" fill="none" xmlns="http://www.w3.org/2000/svg">
<path d="M38.3675 17.6475C38.3469 17.158 38.2988 16.6772 38.2146 16.2066C38.2181 16.1963 38.2181 16.1928 38.2146 16.1808C38.2146 16.1774 38.2146 16.1774 38.2078 16.1705C38.2078 16.1705 38.2078 16.1774 38.2078 16.1808V16.1877C38.0927 16.3096 37.9707 16.4298 37.8488 16.5466C37.8059 16.5947 37.7629 16.6325 37.7217 16.6737C37.653 16.7458 37.5792 16.8163 37.5105 16.885C35.6316 18.733 33.483 20.3749 31.3121 21.8055C29.5843 22.9476 27.8411 23.9489 26.2061 24.8162C24.4611 25.7299 22.8467 26.4839 21.5037 27.0747C20.8785 27.3443 20.3135 27.5831 19.8205 27.784C20.3925 28.1911 21.0056 28.5431 21.6531 28.8385H21.6565L21.6634 28.8351C21.9914 28.6874 22.3143 28.5328 22.6303 28.3817C22.6629 28.3697 22.6956 28.3594 22.7265 28.3388V28.3319C23.7158 27.863 24.6638 27.3701 25.5723 26.8841C25.8815 26.7261 26.1872 26.5629 26.4895 26.4049C26.632 26.3259 26.7797 26.2503 26.9171 26.1713C27.24 26.0082 27.5526 25.8398 27.8652 25.6818C29.4092 24.8059 30.8398 23.8648 32.1245 22.9408C32.1365 22.9476 32.1468 22.9476 32.1537 22.9476C32.1674 22.9253 32.1897 22.9047 32.2104 22.8824C32.3323 22.7931 32.4491 22.7089 32.5659 22.6196C34.9841 20.8334 36.8527 19.1331 37.969 18.046C38.0274 17.9927 38.0807 17.9343 38.1339 17.8828C38.2129 17.8038 38.2919 17.7317 38.3606 17.663C38.3675 17.7059 38.3709 17.7454 38.3709 17.7884C38.3726 17.7385 38.3675 17.6973 38.3675 17.6475ZM26.0378 24.7458C27.69 23.8802 29.4573 22.8721 31.2074 21.7196C33.3937 20.2907 35.5474 18.6419 37.4263 16.7939C37.5122 16.7081 37.6015 16.6239 37.6856 16.5346C37.7286 16.4985 37.7646 16.4556 37.8076 16.4195C37.933 16.2924 38.0549 16.1671 38.1837 16.0451V16.0383H38.1906V16.0314C38.0789 15.42 37.9209 14.8223 37.7183 14.2486C37.7045 14.1954 37.6822 14.1439 37.665 14.0889C37.629 13.9996 37.5963 13.9155 37.5654 13.8416C37.4864 13.651 37.4212 13.5033 37.3679 13.3762C37.3576 13.3556 37.3473 13.3298 37.337 13.3075C37.2717 13.1598 37.2254 13.0499 37.1773 12.9554C37.1309 12.8644 37.0811 12.7751 37.0416 12.6858C37.0261 12.6531 37.009 12.6205 36.9884 12.5844C36.9729 12.5587 36.9557 12.526 36.9403 12.4951C36.93 12.4797 36.9197 12.4625 36.9145 12.447C36.9076 12.4316 36.899 12.4161 36.8887 12.4007C36.8733 12.368 36.8527 12.3423 36.8355 12.3165C36.8252 12.301 36.8132 12.2839 36.8029 12.2701C36.7994 12.2547 36.7874 12.2375 36.7771 12.222C36.7084 12.1104 36.6517 12.0108 36.5985 11.9266C36.4611 11.7068 36.3683 11.5625 36.2859 11.4406C36.2704 11.4148 36.2533 11.3942 36.2378 11.3719C36.1331 11.2087 36.03 11.0816 35.8617 10.8652C35.8514 10.8498 35.8359 10.8326 35.8256 10.8223C35.8102 10.8068 35.7999 10.7965 35.793 10.7794L35.7724 10.7588C35.7569 10.7364 35.7398 10.721 35.7294 10.7055C35.6436 10.6042 35.5697 10.52 35.5027 10.441C35.4495 10.3826 35.4066 10.3294 35.3653 10.283C35.3224 10.2349 35.2863 10.1937 35.2468 10.1559C35.2056 10.1027 35.1644 10.0563 35.1215 10.0134C35.0562 9.94467 34.9892 9.88113 34.924 9.81243C34.8501 9.73686 34.7711 9.65786 34.6921 9.58572C34.6629 9.55996 34.6371 9.53248 34.6062 9.505C34.5994 9.50157 34.5959 9.4947 34.5908 9.49126C34.5839 9.48439 34.5753 9.47924 34.5702 9.46893C34.5633 9.4655 34.5547 9.45863 34.5478 9.45348C34.4791 9.3968 34.4156 9.34356 34.3572 9.29204C34.3108 9.2491 34.2679 9.21131 34.2249 9.17525C34.0979 9.07048 33.9982 8.99148 33.9089 8.91591C33.8076 8.83347 33.7217 8.76477 33.6427 8.70466C33.6101 8.68405 33.5843 8.66172 33.5568 8.64112C33.5105 8.60848 33.4607 8.57242 33.4143 8.53978C33.3611 8.49685 33.3027 8.46078 33.2443 8.42471C33.2134 8.40239 33.1807 8.37663 33.1447 8.35602C33.0914 8.32338 33.0399 8.28732 32.9901 8.26155C32.8424 8.16709 32.717 8.09153 32.6088 8.02454C32.4474 7.92321 32.3254 7.84764 32.2035 7.78582C32.1348 7.74975 32.0661 7.70681 31.9905 7.67418C31.9338 7.64327 31.8754 7.61063 31.8153 7.58487C31.7793 7.56426 31.7363 7.54881 31.6934 7.52648C31.647 7.50415 31.5955 7.48011 31.5405 7.45434C31.5079 7.4406 31.477 7.42515 31.4444 7.41141L31.4323 7.40454H31.422C31.2795 7.3324 31.1318 7.27229 30.9841 7.2139C30.9772 7.21046 30.9686 7.20359 30.9618 7.20359C30.9463 7.20359 30.9308 7.19329 30.9154 7.18814C30.9051 7.1847 30.8999 7.17783 30.8931 7.17783C30.8896 7.17783 30.8828 7.1744 30.8793 7.1744C30.8724 7.1744 30.8724 7.1744 30.8673 7.1744C30.8536 7.16753 30.8312 7.15894 30.8141 7.14864C30.7934 7.14177 30.7711 7.13318 30.7454 7.12287C30.62 7.07478 30.4912 7.02841 30.3658 6.98891H30.3589V6.98548H30.3521C29.167 6.58187 27.8978 6.36719 26.5736 6.36719C24.7273 6.36719 22.9807 6.78797 21.4247 7.55396C21.3783 7.56942 21.3285 7.59689 21.2821 7.61922C21.2289 7.64498 21.1773 7.67246 21.1344 7.69136C21.1275 7.69136 21.1275 7.69823 21.1224 7.69823C21.1189 7.70166 21.1121 7.70166 21.1086 7.70853C21.0004 7.76692 20.9111 7.8133 20.827 7.8631C20.7445 7.91634 20.6587 7.96272 20.59 8.0005C20.5213 8.03657 20.4629 8.07263 20.4096 8.10527C20.3736 8.12587 20.3358 8.1482 20.3049 8.16881C20.2259 8.21518 20.1469 8.27014 20.0679 8.32338C19.9459 8.40239 19.8188 8.4917 19.6539 8.61364C19.611 8.6394 19.5715 8.67203 19.5286 8.70294L19.5183 8.70981L18.9927 9.12716L18.9773 9.13746C18.8845 9.22334 18.7506 9.33325 18.6544 9.41913L18.237 9.8193C18.2216 9.83476 18.201 9.85537 18.1907 9.87254C18.1752 9.888 18.158 9.90346 18.1426 9.92578C18.1288 9.93609 18.1117 9.95154 18.0962 9.96872C18.0807 9.98418 18.0636 9.99448 18.0533 10.0117C18.0275 10.0374 18 10.0683 17.9743 10.0941C17.9674 10.1061 17.9588 10.1096 17.9519 10.1199L17.9485 10.1319L17.9416 10.1353C17.9382 10.1353 17.9313 10.1353 17.9313 10.1422C17.921 10.1525 17.9107 10.1628 17.8987 10.1783C17.8953 10.1851 17.8901 10.1886 17.8867 10.1937C17.8798 10.1971 17.8764 10.204 17.8729 10.2092C15.9476 12.301 14.7832 15.0885 14.7832 18.1456C14.7832 22.0786 16.7154 25.5582 19.6883 27.6964C20.1812 27.4955 20.7617 27.2533 21.4023 26.9734C22.7248 26.3929 24.3169 25.6492 26.0378 24.7458ZM38.3726 17.9395V17.9069C38.3726 17.8759 38.3726 17.8502 38.3658 17.8244C38.2971 17.8914 38.2232 17.967 38.1442 18.0408C38.1013 18.082 38.0583 18.1233 38.0171 18.161C36.9437 19.207 35.1283 20.8661 32.7788 22.6127C31.3448 23.6758 29.7097 24.7784 27.9218 25.7969C27.5406 25.9927 27.1524 26.1936 26.7677 26.398C26.5874 26.489 26.4087 26.5887 26.2215 26.6831C25.1327 27.2636 24.0043 27.8613 22.8192 28.4315C22.486 28.5947 22.1511 28.7527 21.8094 28.9055C22.5565 29.2387 23.3396 29.4929 24.152 29.6612C24.2104 29.6406 24.2739 29.6148 24.3323 29.5822C24.5161 29.5101 24.7033 29.4242 24.8888 29.34C24.9042 29.3366 24.9214 29.3246 24.9352 29.3194C25.0691 29.261 25.2014 29.1975 25.3336 29.1391V29.1357C28.085 27.863 30.9102 26.2898 33.6908 24.4607C33.9708 24.2769 34.2507 24.0863 34.5307 23.8957C35.6917 23.1074 36.8115 22.2967 37.8917 21.462C37.8694 21.541 37.854 21.5994 37.8265 21.663C37.6324 21.8141 37.4315 21.9687 37.2305 22.1232C36.9918 22.2967 36.7531 22.4753 36.5143 22.6522C36.3031 22.8034 36.0918 22.9579 35.8789 23.1091C35.434 23.4216 34.9909 23.7325 34.5392 24.0399C34.2816 24.2134 34.0154 24.3886 33.7561 24.562C33.2855 24.8746 32.8097 25.1803 32.3271 25.4757C32.0936 25.6234 31.8617 25.766 31.623 25.9085C31.1352 26.2108 30.6492 26.4994 30.158 26.7793C29.7922 26.9854 29.4281 27.1915 29.0622 27.3924C28.6964 27.5934 28.3323 27.7875 27.9613 27.9832C27.4736 28.2357 26.9841 28.4847 26.4963 28.7218C26.2473 28.8437 26.0034 28.9588 25.7595 29.0756C25.6273 29.1391 25.4951 29.2009 25.3645 29.2593C25.2683 29.3074 25.167 29.3486 25.0726 29.3967C25.0726 29.4036 25.0726 29.4036 25.0691 29.3967C25.0571 29.407 25.0468 29.4122 25.0365 29.4122H25.0296C24.8613 29.498 24.6861 29.5753 24.5127 29.6492H24.5058C24.4697 29.6715 24.4319 29.6853 24.3942 29.7024C24.6707 29.7608 24.9558 29.8038 25.2426 29.8295L25.368 29.845C25.4435 29.8553 25.5122 29.8587 25.5844 29.8587C25.5844 29.8587 25.5844 29.8587 25.6273 29.8656C25.9399 29.8982 26.2576 29.9085 26.5753 29.9085C27.1747 29.9085 27.7604 29.8656 28.3323 29.7763C28.6123 29.6286 28.8888 29.474 29.1687 29.3212C29.3851 29.1992 29.6032 29.079 29.8265 28.9519C30.1219 28.7887 30.4122 28.6204 30.7093 28.4435C30.9171 28.3216 31.1163 28.2065 31.3173 28.0794C31.6985 27.8527 32.0798 27.6226 32.456 27.3838C32.8475 27.1365 33.2391 26.8823 33.6307 26.6247C33.6307 26.6179 33.6341 26.6179 33.6341 26.6179C33.8574 26.4702 34.0841 26.3225 34.3074 26.1679C34.9789 25.7145 35.6401 25.2387 36.2859 24.7596L36.3769 24.6909C37.0055 23.7617 37.4984 22.7381 37.8419 21.6509C37.8643 21.5822 37.8849 21.517 37.9003 21.4551C37.9209 21.383 37.9433 21.3074 37.957 21.2284C37.969 21.1855 37.9793 21.1426 37.9896 21.1134C37.9999 21.0653 37.9999 21.0653 37.9999 21.0653C38.0223 20.9931 38.0377 20.9382 38.048 20.8918C38.0583 20.8454 38.0686 20.8025 38.0789 20.7544C38.091 20.7184 38.1013 20.6685 38.1116 20.617C38.1219 20.581 38.127 20.538 38.1373 20.4951C38.1442 20.4813 38.1442 20.4642 38.1476 20.4487V20.4418C38.1545 20.4264 38.1545 20.4109 38.1597 20.3989C38.1597 20.3955 38.1631 20.3852 38.1631 20.3783C38.1631 20.3628 38.17 20.3457 38.17 20.3354C38.1734 20.3096 38.1734 20.3096 38.1734 20.3096C38.1854 20.2512 38.1957 20.1877 38.206 20.1258C38.2129 20.1001 38.2129 20.0777 38.2163 20.0503C38.2232 20.0245 38.2266 19.997 38.2318 19.9678C38.2387 19.9524 38.2387 19.9403 38.2387 19.93C38.2421 19.9266 38.2421 19.9197 38.2421 19.9146C38.249 19.8785 38.249 19.8734 38.249 19.8734C38.2593 19.8047 38.2696 19.7136 38.2816 19.6449C38.2816 19.6243 38.285 19.614 38.285 19.6037C38.2919 19.5453 38.2953 19.4766 38.3005 19.4131C38.3005 19.4011 38.3074 19.3976 38.3074 19.3873C38.3537 18.9751 38.3761 18.5629 38.3761 18.1404C38.3795 18.0717 38.3795 18.0082 38.3726 17.9395ZM36.0918 25.0481C36.085 25.0515 36.085 25.0584 36.0815 25.0635C35.2228 25.6904 34.3503 26.2984 33.4555 26.8789C31.8995 27.8974 30.2971 28.8488 28.6878 29.7196C31.2022 29.2696 33.4401 28.0193 35.1335 26.2452C35.1404 26.2366 35.1489 26.2263 35.1592 26.216L35.1919 26.1816C35.1919 26.1816 35.1919 26.1816 35.1919 26.1799L35.2022 26.1696L35.2949 26.0648L35.3602 25.9961L35.386 25.9687C35.386 25.9687 35.386 25.9687 35.3877 25.9669C35.3911 25.9566 35.398 25.9515 35.4066 25.9412L35.5113 25.8244C35.7415 25.5616 35.9579 25.292 36.1588 25.0069L36.0918 25.0481Z" fill="url(#paint0_radial_2047_239)"/>
<path d="M17.9299 10.136C17.9196 10.1463 17.9093 10.1566 17.8973 10.1721C17.8938 10.1789 17.8887 10.1824 17.8852 10.1875C17.899 10.1738 17.9144 10.1635 17.923 10.1515C17.9299 10.1394 17.9385 10.136 17.9385 10.1291C17.9368 10.1308 17.9299 10.1308 17.9299 10.136ZM25.6293 29.868C25.5864 29.8611 25.5864 29.8611 25.5864 29.8611C25.5503 29.8508 25.5039 29.8405 25.4713 29.8302C25.4558 29.8233 25.449 29.8233 25.449 29.8233L25.37 29.7924C25.2051 29.7598 25.2016 29.7598 25.1003 29.7237C25.1381 29.7272 25.1913 29.734 25.2274 29.7392C25.248 29.7272 25.248 29.7272 25.2429 29.7272C25.2051 29.7117 25.1639 29.6911 25.1244 29.6739L25.1209 29.6533C25.1845 29.6567 25.2686 29.6567 25.3322 29.6533C25.2995 29.5949 25.2995 29.5949 25.2995 29.5949L25.2635 29.5314C25.2051 29.4833 25.1209 29.4403 25.0522 29.4146C25.0419 29.4111 25.0419 29.4111 25.0368 29.4111H25.0299C24.8616 29.497 24.6864 29.5743 24.5129 29.6481C24.7173 29.7237 24.9578 29.7804 25.2429 29.8285L25.3682 29.8439C25.4696 29.8577 25.5692 29.8697 25.6808 29.8749C25.6568 29.8749 25.6396 29.8749 25.6293 29.868ZM26.2218 26.6838C25.1329 27.2643 24.0046 27.862 22.8195 28.4322C23.1149 28.7379 23.3073 28.932 23.3159 28.9388C23.6027 29.1724 23.8947 29.4043 24.3326 29.5829C24.5164 29.5108 24.7036 29.4249 24.8891 29.3407C24.8822 29.3373 24.8822 29.3304 24.8822 29.3304C24.8616 29.2978 24.8358 29.2617 24.8135 29.2308C24.8616 29.2669 24.8994 29.2943 24.9354 29.3201C25.0694 29.2617 25.2016 29.1982 25.3339 29.1398V29.1363C25.327 29.1106 25.327 29.1106 25.3339 29.1106C25.3493 29.0814 25.382 29.0419 25.3974 29.0092C25.4095 28.9509 25.4095 28.9509 25.4043 28.9509V28.9406C25.4301 28.9148 25.4627 28.8822 25.4833 28.8547C25.4988 28.8392 25.4988 28.8392 25.5056 28.8392C25.4988 28.8032 25.4902 28.7568 25.4833 28.7173C25.4369 28.6537 25.4301 28.6537 25.4249 28.6537C25.4112 28.6228 25.3889 28.5747 25.3785 28.5421C25.3854 28.5284 25.3889 28.5284 25.3889 28.5284C25.6585 28.2725 25.856 28.2467 26.0827 28.2158C26.1686 28.178 26.172 28.178 26.172 28.178L26.1875 28.1574C26.2029 28.1213 26.2201 28.0732 26.2338 28.0354C26.2562 27.9496 26.2493 27.9496 26.2459 27.9496C26.2665 27.9187 26.2922 27.8706 26.3094 27.8397C26.3455 27.7916 26.3524 27.7916 26.3524 27.7916C26.385 27.7229 26.4056 27.6181 26.3987 27.5425H26.373C26.3798 27.5065 26.385 27.4601 26.3884 27.4206C26.4039 27.3674 26.4142 27.3674 26.421 27.3674C26.4365 27.2952 26.452 27.1836 26.452 27.1046H26.4262C26.4125 27.0616 26.3953 27.0153 26.385 26.9723C26.385 26.9191 26.3953 26.9191 26.3987 26.9191C26.421 26.7714 26.421 26.7559 26.5533 26.634C26.5464 26.634 26.543 26.634 26.543 26.634C26.5997 26.5756 26.6684 26.4897 26.7268 26.433C26.7268 26.433 26.7336 26.433 26.7371 26.433C26.7474 26.4176 26.7594 26.4073 26.7697 26.3953C26.5876 26.4897 26.409 26.5893 26.2218 26.6838ZM24.7774 29.1913V29.1879L24.7877 29.1913C24.7843 29.1913 24.7843 29.1913 24.7774 29.1913ZM25.0746 29.3991C25.1433 29.4317 25.1965 29.4317 25.3013 29.4197C25.339 29.3407 25.339 29.3407 25.3442 29.3407C25.3511 29.3201 25.3545 29.2944 25.3665 29.2686V29.2617C25.2703 29.3098 25.169 29.3493 25.0746 29.3991ZM27.0754 25.5966V25.5812C27.0599 25.5451 27.0445 25.4919 27.0325 25.4558C27.0016 25.3751 27.017 25.3751 27.0325 25.3751C26.9002 25.1965 26.9002 25.1965 26.4983 25.0539H26.4348C26.3764 25.0007 26.3008 24.932 26.2476 24.8805C26.1943 24.8272 26.2115 24.8272 26.2321 24.8272C26.2218 24.8238 26.2184 24.8169 26.2064 24.8169C24.4614 25.7306 22.847 26.4846 21.5039 27.0754C21.9591 27.5408 22.3919 27.9942 22.7251 28.3326C23.7143 27.8637 24.6624 27.3708 25.5709 26.8847C25.88 26.7267 26.1858 26.5636 26.488 26.4056C26.6306 26.3266 26.7783 26.251 26.9157 26.172C26.9225 26.1617 26.9311 26.1462 26.9363 26.1291H26.9105C26.926 26.093 26.9432 26.0466 26.9586 26.0071C27.0016 25.9178 27.005 25.9178 27.0153 25.9178C27.0582 25.7907 27.084 25.7066 27.096 25.6276C27.0909 25.5898 27.0806 25.5898 27.0754 25.5966ZM25.26 24.5352C25.1518 24.482 25.1381 24.482 25.1226 24.482L25.0746 24.4494C24.841 24.3223 24.7517 24.312 24.561 24.3377C24.4717 24.4923 24.4494 24.5215 24.4236 24.7018C24.3876 24.7018 24.3412 24.6984 24.3017 24.6984C24.288 24.6726 24.2656 24.64 24.2553 24.6125C24.2811 24.5902 24.3189 24.5593 24.3446 24.537C24.3927 24.4803 24.3876 24.4803 24.3824 24.4803L24.403 24.4425C24.4133 24.4116 24.4288 24.3635 24.4391 24.3326C24.4391 24.2381 24.4494 24.2381 24.4614 24.2381C24.2553 23.9994 24.0321 24.3635 23.8036 24.3704C23.783 24.3446 23.7504 24.3017 23.7298 24.2759C23.7607 24.233 23.7607 24.233 23.7607 24.233L23.7761 24.2175L23.8122 24.2021C24.1506 24.0767 24.1729 24.0183 24.2364 23.8706H24.2038C24.1368 23.6799 24.1214 23.6765 23.9771 23.6336C23.9771 23.6181 23.9994 23.6181 24.0149 23.6181C23.9891 23.5821 23.9891 23.5821 23.759 23.2317H23.7178L23.6851 23.1956C23.6319 23.1321 23.558 23.0531 23.5048 22.9947C23.4893 22.9689 23.5048 22.9689 23.5271 22.9689C23.1991 22.6563 23.1991 22.6563 22.6959 22.7525C22.6426 22.6941 22.5842 22.6151 22.5413 22.5464H22.5001C22.4211 22.452 22.3352 22.3678 22.2613 22.2665C22.2768 22.2665 22.2871 22.2733 22.3043 22.2733L22.294 22.2579C22.2304 22.2218 22.0862 22.1428 21.8543 22.1153C21.8612 22.0346 21.8801 21.935 21.9024 21.8663C21.9024 21.844 21.8921 21.844 21.8869 21.844C21.8972 21.7718 21.9127 21.6705 21.9196 21.5967C21.923 21.5709 21.935 21.5709 21.9453 21.5709L21.9024 21.4953L21.8921 21.4919C21.8543 21.5743 21.7959 21.686 21.7478 21.765C21.6516 21.7014 21.5795 21.607 21.4782 21.5486H21.5417C21.4679 21.5228 21.3665 21.5022 21.2875 21.5022C21.2343 21.528 21.224 21.5348 21.224 21.5348C21.1707 21.5812 21.1278 21.6705 21.1227 21.7392C21.0814 21.8045 21.0694 21.8045 21.0591 21.8045C20.9166 21.5554 20.8427 21.4283 20.604 21.5915C20.5714 21.576 20.525 21.5486 20.4923 21.5348C20.482 21.4919 20.4923 21.4919 20.5078 21.4919C20.4717 21.4232 20.4288 21.3287 20.3927 21.2583C20.0424 21.2738 20.0475 21.643 20.0544 21.9127C20.0321 21.8766 20.0063 21.8337 19.9857 21.8028C19.9599 21.722 19.9479 21.722 19.9376 21.722C19.9221 21.6173 19.9067 21.528 19.9067 21.4421C19.9101 21.4421 19.9204 21.449 19.9273 21.449L19.9342 21.4335C19.9548 21.339 19.9805 21.2102 19.9977 21.1175C19.972 21.0952 19.9342 21.0694 19.9084 21.0488C19.8174 21.09 19.8174 21.09 19.6164 21.26C19.3897 21.4146 19.3399 21.6825 19.1991 21.8938C19.1562 21.8869 19.1029 21.8835 19.0669 21.8835C19.0342 21.8148 18.9758 21.7289 18.9295 21.6705C18.8556 21.6173 18.8401 21.6173 18.8247 21.6173C18.7921 21.6035 18.7491 21.5864 18.7131 21.5709C18.7027 21.5915 18.6873 21.6138 18.677 21.6293C18.6134 21.6757 18.5293 21.7341 18.464 21.777C18.306 21.7014 18.306 21.7014 18.2201 21.5383H18.1892C18.1463 21.4524 18.1034 21.3373 18.0776 21.248H18.1034C18.0673 21.0625 18.0673 21.0625 18.0501 20.8616C18.0398 20.8255 18.0347 20.8186 18.0295 20.8186C18.0226 20.7362 18.0295 20.6246 18.0295 20.5387H18.0501C18.0707 20.3378 18.0707 20.3378 18.014 20.1797C17.966 20.0939 17.9488 20.0939 17.9385 20.0904C17.8955 20.0217 17.8268 19.9307 17.7633 19.874C17.6946 19.8998 17.6053 19.9462 17.5417 19.9891C17.4662 19.953 17.3614 19.9101 17.2824 19.8843C17.2824 19.8414 17.2858 19.7899 17.2858 19.7469C17.3013 19.7006 17.3082 19.7006 17.3116 19.704C17.3271 19.5666 17.3271 19.5666 17.3185 19.3073C17.3116 19.2609 17.3082 19.2609 17.303 19.2609C17.3253 19.0874 17.3253 19.0874 17.394 18.9758C17.3975 18.9758 17.3975 18.9758 17.4043 18.9827C17.4782 18.8023 17.4782 18.8023 17.4833 18.6014C17.473 18.543 17.4679 18.543 17.4576 18.543C17.4473 18.5069 17.4353 18.4537 17.425 18.4108C17.4215 18.4108 17.145 18.3163 16.9372 18.4468C16.9114 18.6065 16.9217 18.7646 16.8943 18.9226C16.6899 18.9449 16.683 18.9483 16.5885 19.0703C16.4666 19.0119 16.4666 19.0119 16.367 18.7749C16.3704 18.7749 16.3807 18.7817 16.3928 18.7817C16.2846 18.5327 16.2742 18.4898 16.2382 18.2991C16.2279 18.2957 16.2227 18.2957 16.2176 18.2957C16.2107 18.2201 16.2021 18.1257 16.2021 18.0535C16.2124 17.9951 16.2176 17.9951 16.2227 17.9951C16.2296 17.7787 16.2296 17.7461 16.2485 17.5572C16.245 17.5572 16.2382 17.5572 16.233 17.5503C16.2588 17.3871 16.2588 17.3871 16.2914 17.2704C16.2983 17.2704 16.3017 17.2704 16.3017 17.2704C16.3601 17.054 16.3601 17.0436 16.3773 16.841C16.3704 16.841 16.367 16.8376 16.355 16.8376C16.3515 16.762 16.3704 16.6538 16.4134 16.5885C16.4357 16.5628 16.4357 16.5628 16.4391 16.5628L16.4752 16.5198L16.513 16.4992C16.592 16.4305 16.6967 16.3446 16.7706 16.1969C16.7706 16.1969 16.7706 16.1969 16.7706 16.1935C17.0093 16.1677 17.0883 16.2193 17.2 16.3876C17.2309 16.3876 17.279 16.3876 17.315 16.3944C17.3511 16.3154 17.3477 16.3154 17.3408 16.3086L17.3477 16.2725C17.3786 16.2502 17.4164 16.2193 17.4438 16.1969C17.5177 16.2124 17.5177 16.2124 17.9179 16.1609C17.9333 16.233 17.9608 16.3292 17.9831 16.403C18.0192 16.3927 18.0656 16.3824 18.1051 16.3704C18.2201 16.762 18.2699 17.1639 18.3524 17.5555C18.3781 17.5589 18.4176 17.5589 18.4434 17.5589C18.4967 17.4868 18.5482 17.3683 18.5757 17.2789C18.5791 17.2205 18.5757 17.2205 18.5688 17.2205C18.5757 17.1484 18.5791 17.0471 18.5757 16.9732C18.5791 16.9303 18.5911 16.9303 18.6014 16.9303C18.5911 16.8032 18.586 16.6778 18.5757 16.549C18.5653 16.4906 18.5533 16.4906 18.543 16.4906C18.5396 16.4185 18.5224 16.3275 18.507 16.2605C18.5224 16.2021 18.5276 16.2021 18.5327 16.2021C18.6083 16.0115 18.634 15.9376 18.835 15.8122C18.8882 15.7538 18.9569 15.68 19.0033 15.6285C19.072 15.5529 19.072 15.5529 19.0789 15.5529C19.3004 15.2781 19.3228 15.2575 19.3743 15.2145C19.5958 15.1149 19.5958 15.1149 19.6903 15.0205C19.6903 14.9878 19.6869 14.9449 19.68 14.914H19.7126C19.6697 14.6942 19.6697 14.6838 19.68 14.4966C19.7762 14.5121 19.9565 14.519 19.9823 14.2545H20.008C20.0183 14.2012 20.0544 14.1222 20.1042 14.0862C20.1351 14.0759 20.1832 14.0535 20.2141 14.0381C20.2296 13.9917 20.2571 13.9282 20.2571 13.8766C20.2536 13.8766 20.2416 13.8766 20.2364 13.8698C20.4271 13.7066 20.6383 13.8629 20.8393 13.8371C20.8496 13.8062 20.865 13.7581 20.8753 13.7272C20.8719 13.6585 20.8874 13.6585 20.8977 13.6585C20.8444 13.4301 20.8547 13.4095 20.9303 13.2687C20.9303 13.2687 20.9234 13.2687 20.9183 13.2687C21.0625 13.1416 21.2996 13.2257 21.4181 13.0454H21.4318C21.4576 13.0196 21.4902 12.9818 21.5177 12.9561C21.5434 13.0883 21.5245 13.2257 21.5434 13.3631C21.5864 13.3511 21.6327 13.3477 21.6757 13.3408C21.7135 13.3202 21.7135 13.3202 21.7135 13.3202C21.978 13.1347 22.3094 13.1244 22.5962 12.999C22.6649 12.9234 22.6649 12.9183 22.6649 12.9131C22.6649 12.8771 22.6581 12.8273 22.6581 12.7912C22.6443 12.7277 22.6323 12.7277 22.622 12.7277C22.6186 12.6899 22.6066 12.6418 22.6014 12.6057C22.5361 12.6263 22.4537 12.6778 22.4039 12.7311C22.2923 12.7105 22.282 12.7105 22.2716 12.7105C22.2785 12.6675 22.2871 12.6091 22.2923 12.5628C22.2253 12.5508 22.1291 12.5559 22.0655 12.5731C22.0552 12.5404 22.0398 12.4975 22.0295 12.4614C22.0398 12.446 22.0518 12.446 22.0621 12.446C22.1841 12.2296 22.1841 12.2296 22.1514 12.0819H22.1085C22.0776 12.0681 22.0346 12.051 21.9969 12.0389C21.8972 12.0716 21.8972 12.0681 21.8921 12.0681L21.868 12.0905C21.698 12.1763 21.5125 12.2176 21.3425 12.2845C21.3751 12.2124 21.4335 12.1111 21.4765 12.0424H21.461C21.6139 11.8586 21.856 11.8689 22.0535 11.7693L22.069 11.759C22.1325 11.7727 22.2218 11.8054 22.2854 11.8311L22.2888 11.838C22.2957 11.9204 22.2991 12.0389 22.2957 12.1231C22.5499 12.0699 22.5653 12.0166 22.598 11.8844C22.6186 11.8689 22.6186 11.8689 22.6186 11.8689C22.7508 11.7865 22.7508 11.7865 23.0789 11.747H23.0892C23.1424 11.6903 23.2214 11.625 23.2798 11.5787C23.2953 11.6147 23.3124 11.6731 23.3227 11.7109C22.8676 12.2502 22.8779 12.355 22.8882 12.434C23.2798 12.4408 23.2798 12.4408 23.3554 12.4718C23.4601 12.5078 23.4601 12.5078 23.4653 12.5078L23.5031 12.4718C23.5443 12.4718 23.5924 12.4649 23.6353 12.4614C23.6611 12.4872 23.692 12.5181 23.7212 12.5404C23.7744 12.5147 23.7779 12.5147 23.7882 12.5147C23.826 12.3807 23.826 12.3807 23.7624 12.1506H23.7315C23.716 12.0819 23.6628 11.9909 23.6096 11.9496C23.5769 11.9531 23.5305 11.9634 23.491 11.9702C23.4653 11.9496 23.4344 11.9222 23.4017 11.8947C23.4172 11.9016 23.4344 11.9016 23.4447 11.9016C23.4189 11.8809 23.376 11.8586 23.3485 11.838C23.3846 11.7693 23.4378 11.6748 23.4859 11.6044C23.5168 11.546 23.5117 11.546 23.5065 11.546C23.5546 11.4773 23.6181 11.388 23.6645 11.3193H23.68C23.68 11.2833 23.6765 11.2335 23.6765 11.1974C23.5065 11.1115 23.4962 11.0651 23.4893 10.9776H23.4636C23.443 10.902 23.4 10.8144 23.364 10.7491H23.4069C23.3313 10.7285 23.2317 10.7131 23.1579 10.7131C23.1321 10.6409 23.1252 10.5293 23.1372 10.4503C23.1372 10.4177 23.1252 10.4142 23.1218 10.4142V10.2974C23.1149 10.203 23.1252 10.203 23.1372 10.203C23.1252 10.1343 23.1149 10.0347 23.1115 9.96596C23.096 9.89039 23.0857 9.8904 23.0789 9.8904C23.0428 9.88696 22.993 9.87494 22.9569 9.86979C22.7491 10.0639 22.7491 10.0639 22.6512 10.1326C22.5756 10.1171 22.4863 10.0862 22.4245 10.0536C22.4279 10.0175 22.4348 9.96425 22.4348 9.92818C22.4657 9.90585 22.4984 9.87322 22.5241 9.85261C22.5567 9.832 22.5928 9.79937 22.6203 9.78048C22.5997 9.74269 22.5739 9.69976 22.5516 9.66884C22.5258 9.64651 22.5447 9.65338 22.5739 9.65338C22.5361 9.63793 22.488 9.61732 22.452 9.60014C22.4039 9.45588 22.3558 9.30474 21.9797 9.42668C21.923 9.47305 21.923 9.47305 21.5778 9.89555C21.5417 9.90585 21.4919 9.92131 21.4627 9.93161C21.437 10.397 21.4301 10.4228 21.1072 10.6238C21.0746 10.6134 21.0437 10.598 21.011 10.5808C20.9853 10.5705 20.9475 10.5602 20.9217 10.5551C20.604 11.3434 20.604 11.3434 20.4288 11.321C20.4185 11.285 20.4082 11.242 20.3979 11.206C20.4237 11.1802 20.4546 11.1373 20.4803 11.1046H20.4958C20.5387 11.0359 20.5851 10.9466 20.6229 10.8711H20.6005L20.6074 10.8573C20.5817 10.8779 20.5439 10.914 20.5164 10.9363C20.5233 10.9037 20.5233 10.8573 20.5284 10.8195C20.5387 10.756 20.5319 10.756 20.5284 10.756C20.5593 10.6925 20.6023 10.6014 20.6246 10.5327C20.6349 10.5327 20.6383 10.5327 20.6504 10.5396C20.6435 10.5035 20.6383 10.4537 20.6349 10.4177C20.4769 10.44 20.2364 10.4657 20.1746 10.148C20.154 10.1119 20.142 10.1119 20.1265 10.1119C20.0595 10.0965 20.0527 10.0965 20.0475 10.0965L20.0115 10.1034L20.0012 10.0879C19.9943 10.0879 19.9908 10.081 19.9857 10.081C20.0063 10.0501 20.0389 10.002 20.0613 9.9694C20.1179 9.87494 20.1282 9.87494 20.1351 9.87494L20.142 9.84402C20.1884 9.75815 20.1884 9.75815 20.3584 9.57438H20.3429C20.3962 9.50912 20.4752 9.43698 20.537 9.38889C20.5439 9.38889 20.5439 9.38889 20.5439 9.38889C20.6555 9.32535 20.7706 9.26352 20.8874 9.20512C20.9835 9.14845 20.9835 9.14845 20.9835 9.14845C21.0522 9.10551 21.1536 9.05742 21.2326 9.02651C21.2583 9.04712 21.2961 9.07288 21.3288 9.09349C21.3545 9.07288 21.3975 9.05227 21.4249 9.02994C21.4455 9.01964 21.4507 9.01964 21.4507 9.01964C21.5039 8.97155 21.5778 8.908 21.6345 8.86507C21.5881 9.01277 21.5881 9.01277 21.4078 9.13471C21.4713 9.13471 21.4713 9.13471 21.789 9.06601C21.7736 9.10379 21.753 9.15704 21.7409 9.1931C21.7787 9.20341 21.8268 9.21887 21.8629 9.22573L21.9591 9.13127C21.9814 9.09349 21.9848 9.09349 21.9917 9.09864L21.9986 9.07288C21.9831 9.00418 21.9762 8.90457 21.9986 8.83587C22.002 8.80324 21.9917 8.80324 21.9865 8.80324C21.9831 8.80324 21.9762 8.80324 21.9728 8.79637C21.9659 8.79637 21.9659 8.79637 21.9608 8.79637L21.9299 8.80839C21.8818 8.78606 21.8766 8.78606 21.8715 8.78606V8.77061C21.8972 8.74484 21.9299 8.70706 21.9505 8.6813C22.1737 8.79293 22.4606 8.61775 22.5653 8.44429C22.5533 8.41166 22.5499 8.41165 22.5396 8.4065L22.543 8.3962C22.713 8.28456 22.7336 8.29143 22.8882 8.30689C22.9243 8.28113 22.9243 8.28113 22.9243 8.28113C22.9312 8.28113 22.9312 8.28113 22.9346 8.28113L22.9466 8.27082L23.0256 8.21586C22.9999 8.24506 22.9672 8.28113 22.9466 8.30689C22.9569 8.34296 22.9724 8.39276 22.9775 8.42196C22.8779 8.51299 22.8247 8.55936 22.7302 8.60229L22.8041 8.68817H22.8109C22.8848 8.63493 22.8848 8.63493 23.0548 8.50783C23.0651 8.5439 23.0754 8.59371 23.0857 8.62977C23.0703 8.63664 23.0548 8.64523 23.0394 8.65038C22.8813 8.71908 22.7525 8.84102 22.5791 8.87709C22.5533 8.87365 22.5361 8.86678 22.5207 8.86678C22.4417 8.85648 22.4382 8.85648 22.4382 8.85648L22.4228 8.86678C22.3111 8.94235 22.2682 8.97155 22.1463 9.15875C22.5052 9.09349 22.6529 9.16219 22.6959 9.42153C22.7216 9.40607 22.7491 9.38889 22.7714 9.37516C22.8178 9.46962 22.8676 9.54347 23.0084 9.53316H23.0187C23.0445 9.5074 23.084 9.46961 23.1098 9.44385C23.1355 9.45759 23.1785 9.48507 23.2094 9.5074C23.242 9.49194 23.2884 9.47133 23.321 9.45416C23.3433 9.40607 23.3365 9.40607 23.3313 9.40607C23.3537 9.35283 23.3743 9.27382 23.3691 9.21543H23.3949C23.3691 9.15188 23.3416 9.05399 23.3365 8.98529C23.3571 8.95266 23.3571 8.94235 23.3571 8.9372L23.3725 8.92174C23.4052 8.9372 23.4481 8.94751 23.4773 8.96468C23.4928 8.99731 23.5151 9.04025 23.5305 9.07631C23.5683 9.08318 23.6164 9.09177 23.6525 9.09692L23.6594 9.09349L23.7023 9.07116C23.7487 9.04025 23.8174 9.00246 23.8672 8.9664C23.8929 8.93548 23.9238 8.90972 23.9496 8.88052C23.929 8.85476 23.9032 8.81698 23.8826 8.79122H23.9359C23.9101 8.77061 23.8706 8.74484 23.8397 8.72252C23.8328 8.68645 23.8277 8.63321 23.8174 8.59714C23.7865 8.58512 23.7384 8.57138 23.7057 8.55936C23.6594 8.51814 23.6525 8.51814 23.6491 8.51814L23.6525 8.50612C23.6748 8.47005 23.7006 8.42711 23.7212 8.39105C23.7538 8.35841 23.7538 8.35841 23.759 8.35841C23.7796 8.33265 23.8053 8.28972 23.826 8.26395C23.795 8.23304 23.7624 8.19182 23.7366 8.15919C23.6473 8.10595 23.637 8.10595 23.625 8.10595L23.6216 8.09564C23.6113 8.0527 23.5958 8.00633 23.5838 7.9634C23.5907 7.94794 23.5992 7.94794 23.6061 7.94794C23.6164 7.91187 23.6216 7.86894 23.6267 7.83115C23.4842 7.75902 23.4327 7.73154 23.1613 7.78993C23.1544 7.78993 23.1544 7.78993 23.1544 7.78993C22.9277 7.94107 22.9277 7.94107 22.8058 7.9737C22.8384 7.94794 22.8745 7.91531 22.9071 7.8947C22.9535 7.86894 22.9535 7.86893 22.9604 7.86893L23.0033 7.8363C23.0668 7.80024 23.1458 7.73497 23.2042 7.6886C23.029 7.70921 22.7079 7.75215 22.4056 8.09908C22.4382 8.12656 22.4743 8.15747 22.5052 8.1798C22.4382 8.30174 22.4262 8.3275 22.2837 8.37387C22.2768 8.37387 22.2768 8.37387 22.2734 8.37387C22.2081 8.39963 22.1188 8.44944 22.0604 8.48551C22.0862 8.45287 22.1257 8.40994 22.1514 8.38074C22.1652 8.36528 22.1652 8.35841 22.1652 8.35841C22.1875 8.3275 22.2201 8.28972 22.2407 8.26395C22.2047 8.27082 22.1514 8.27941 22.1085 8.28971C22.1291 8.2588 22.1549 8.21758 22.172 8.18495C22.1823 8.17464 22.1875 8.17464 22.1944 8.18151C22.2407 8.12312 22.3043 8.05442 22.3575 8.00805C22.4056 7.95309 22.4108 7.94279 22.4108 7.94279C22.1308 7.96855 21.9831 8.21243 21.7616 8.32922C21.6929 8.35498 21.607 8.39792 21.5452 8.42883C21.5915 8.37559 21.6602 8.30689 21.7203 8.27082C21.7135 8.26395 21.7135 8.26395 21.71 8.26395C21.7461 8.23819 21.7925 8.20728 21.832 8.18151C21.911 8.12827 21.9247 8.12312 21.9316 8.12312L21.9745 8.09049C21.9539 8.09049 21.899 8.11625 21.4782 8.34983C21.4095 8.33952 21.3202 8.31376 21.2515 8.28628C21.2721 8.25365 21.2978 8.21071 21.3202 8.18151C21.3614 8.15919 21.3614 8.15919 21.3614 8.15919C21.5692 8.14373 21.5898 8.13343 21.7324 8.06988C21.7392 8.06988 21.7392 8.06988 21.7392 8.06988L21.7598 8.05957C21.8234 8.02179 21.8972 7.94794 21.935 7.88611C21.9831 7.84317 21.9883 7.83115 21.9883 7.82772C22.0467 7.78478 22.1325 7.73669 22.1961 7.70062C22.2115 7.69719 22.2115 7.69719 22.2167 7.69719C22.4331 7.59586 22.4331 7.59586 22.5121 7.5117L22.5447 7.5014C22.6134 7.47563 22.7027 7.43785 22.7714 7.41209C22.7972 7.39663 22.8075 7.39663 22.8144 7.39663C23.0376 7.30217 23.0376 7.30217 23.1269 7.22317C23.1424 7.21286 23.1372 7.21286 23.1338 7.20771C23.0479 7.23347 22.9586 7.2661 22.8745 7.28671C22.9054 7.2661 22.9535 7.23347 22.9895 7.21458C23.0479 7.15619 23.0479 7.15619 23.0479 7.15619L23.0634 7.14588C23.1201 7.12355 23.1956 7.09779 23.2489 7.07031C23.0634 7.09264 22.9157 7.11325 22.6564 7.22488C22.6924 7.21801 22.7422 7.21801 22.7714 7.21801C22.6976 7.2558 22.5962 7.30217 22.5241 7.33995C22.555 7.33652 22.6031 7.3245 22.634 7.31935C22.5653 7.35026 22.4812 7.39148 22.4125 7.42411C22.4056 7.45674 22.4022 7.50311 22.4022 7.53575C22.3438 7.56151 22.3438 7.56151 21.8921 7.79508C21.9608 7.75215 22.0467 7.70062 22.1188 7.65769C22.1188 7.66112 22.1188 7.66112 22.1257 7.66112C22.1583 7.64051 22.2012 7.6199 22.2304 7.59758C22.1995 7.58727 22.1514 7.57697 22.1188 7.56494C22.1841 7.52888 22.2631 7.47048 22.3249 7.42926C22.361 7.40694 22.3678 7.4035 22.3678 7.4035C22.4005 7.38804 22.4434 7.36572 22.4726 7.34854C22.4039 7.33824 22.1823 7.29187 21.5932 7.63364C21.619 7.63364 21.6568 7.64566 21.6843 7.64566L21.7409 7.62334C21.7736 7.60788 21.8165 7.59071 21.8457 7.57697C21.6139 7.71265 21.3906 7.87237 21.1381 7.98229C21.1845 7.93592 21.2498 7.87752 21.303 7.83459C21.303 7.84146 21.303 7.84146 21.303 7.84146L21.3185 7.83115C21.3494 7.80882 21.3854 7.78306 21.4112 7.76245C21.3751 7.75558 21.3185 7.75558 21.279 7.75215C21.3167 7.72982 21.358 7.70406 21.3975 7.68345H21.3751C21.4078 7.66112 21.4438 7.63536 21.4765 7.6199C21.4404 7.63021 21.3975 7.64566 21.358 7.65597C21.3906 7.62334 21.4026 7.6096 21.406 7.60273C21.3373 7.63364 21.248 7.67143 21.1793 7.70234C21.2429 7.66627 21.3322 7.6199 21.3957 7.59071C21.4163 7.5804 21.4318 7.5701 21.4421 7.56494C21.3957 7.5804 21.3459 7.60788 21.2996 7.63021C21.2463 7.65597 21.1948 7.68345 21.1519 7.70234C21.145 7.70234 21.145 7.70921 21.1398 7.70921C21.1364 7.71265 21.1295 7.71265 21.1261 7.71952C21.0179 7.77791 20.9286 7.82428 20.8444 7.87409C20.762 7.92733 20.6761 7.9737 20.6074 8.01148C20.5387 8.04755 20.4803 8.08362 20.4271 8.11625C20.391 8.13686 20.3532 8.15919 20.3223 8.1798C20.2433 8.22617 20.1643 8.28113 20.0853 8.33437C19.9634 8.41337 19.8363 8.50268 19.6714 8.62462C19.6285 8.65038 19.589 8.68302 19.546 8.71393L19.5357 8.7208L19.0102 9.13814L18.9947 9.14845C18.902 9.23432 18.768 9.34424 18.6718 9.43011L18.2545 9.83028C18.239 9.84574 18.2184 9.86635 18.2081 9.88353C18.1927 9.89898 18.1755 9.91444 18.16 9.93677C18.172 9.9299 18.1755 9.92131 18.1858 9.91444C18.172 9.93677 18.1549 9.95222 18.1291 9.97283C18.1394 9.95738 18.1497 9.94707 18.16 9.93677C18.1463 9.94707 18.1291 9.96253 18.1137 9.9797C18.0982 9.99516 18.081 10.0055 18.0707 10.0226C18.045 10.0484 18.0175 10.0793 17.9917 10.1051C17.9848 10.1171 17.9763 10.1205 17.9694 10.1308L17.966 10.1429C18.002 10.1051 18.0347 10.0673 18.0621 10.0518C17.0402 11.1613 14.8968 13.7753 15.2884 17.4507C15.3039 17.4541 15.3314 17.4541 15.3468 17.461C15.3502 17.4249 15.3623 17.382 15.3674 17.3442C15.3674 17.2618 15.364 17.2618 15.3571 17.2549C15.3502 17.1828 15.3417 17.0746 15.3314 17.0024C15.3245 16.9337 15.3314 16.9337 15.3382 16.9389L15.3262 16.8702C15.3331 16.7792 15.3331 16.7792 15.364 16.4838C15.3571 16.4838 15.352 16.4838 15.352 16.4803C15.352 16.4048 15.3588 16.3069 15.352 16.2313C15.3588 16.178 15.364 16.1729 15.3674 16.1729C15.3743 16.0097 15.3743 16.0097 15.4001 15.7727C15.4035 15.7195 15.4001 15.7143 15.3932 15.7143L15.4001 15.6473C15.4035 15.5718 15.4104 15.4773 15.4207 15.4052C15.4207 15.4086 15.4275 15.4086 15.4275 15.4155C15.4481 15.3365 15.4808 15.23 15.5134 15.151C15.4808 17.3219 15.4602 19.0325 16.0098 19.6181C16.0458 19.6113 16.0991 19.6027 16.1351 19.5975C16.1935 19.6542 16.2571 19.7401 16.2897 19.8122C16.3223 19.8191 16.3653 19.8242 16.3945 19.8277V19.8242C16.391 19.8242 16.391 19.8242 16.3842 19.8242C16.3945 19.7864 16.4099 19.7452 16.4202 19.7126C16.458 19.6971 16.5061 19.6868 16.5422 19.6697C18.3902 22.1514 18.3902 22.1514 18.6272 22.2476C18.6478 22.2115 18.6804 22.1634 18.701 22.1256C18.7131 22.0312 18.7234 22.0243 18.7268 22.0243C18.7594 22.0037 18.7955 21.9814 18.8281 21.9608C19.0394 22.1617 19.0394 22.1617 19.321 24.7173C19.3313 24.7894 20.3876 25.9161 21.4215 26.9861C22.7439 26.4107 24.3378 25.6653 26.0569 24.7637C25.7839 24.6675 25.4988 24.6726 25.26 24.5352ZM19.862 12.908C19.8981 12.8771 19.9153 12.8651 19.9376 12.8513C19.941 12.8444 19.9513 12.8444 19.9582 12.8444C19.9582 12.8513 19.9651 12.8547 19.9908 12.8599C20.0699 12.8633 20.1557 12.8376 20.2347 12.8754C20.2656 12.8891 20.2656 12.9423 20.2485 12.975C20.2176 13.0231 20.0012 13.1021 19.905 13.133C19.8363 13.1553 19.8191 13.1708 19.7727 13.2188C19.7573 13.2343 19.7298 13.2549 19.7075 13.2721C19.6405 13.315 19.5598 13.3477 19.4859 13.3889C19.4103 13.4352 19.3537 13.5039 19.2747 13.54C19.2747 13.5469 19.1733 13.5933 19.1733 13.5091L19.1802 13.4868H19.206C19.2094 13.4335 19.2197 13.3614 19.522 13.2343L19.5288 13.224C19.5495 13.2137 19.5495 13.2137 19.625 13.145C19.6182 13.145 19.613 13.1381 19.613 13.1381C19.7092 13.0368 19.7779 12.975 19.8569 12.9046C19.862 12.908 19.862 12.908 19.862 12.908ZM18.9466 11.7985C18.993 11.7727 19.0462 11.7676 19.0943 11.7453C19.1201 11.735 19.1579 11.7195 19.2695 11.6508C19.3915 11.5787 19.4636 11.5289 19.5031 11.5357C19.5134 11.5357 19.5185 11.5426 19.5185 11.546C19.522 11.5581 19.522 11.5615 19.522 11.5684C19.5185 11.6147 19.5185 11.668 19.5374 11.7367C19.5529 11.8122 19.5804 11.8311 19.601 11.8483C19.6113 11.8552 19.6113 11.8741 19.6079 11.8844C19.601 11.8947 19.5975 11.9067 19.5924 11.917C19.5598 11.9702 19.4602 12.075 19.4378 12.075C19.4344 12.0819 19.4121 12.075 19.3915 12.0647C19.3657 12.0493 19.3331 12.0321 19.3021 12.0218C19.2798 12.0115 19.2541 12.0115 19.2266 11.996C19.2163 11.996 19.2111 11.9806 19.2111 11.9702C19.2077 11.9496 19.218 11.9273 19.218 11.9067C19.1957 11.8912 19.0428 11.9428 18.9741 11.9788C18.9312 12.0012 18.9106 12.0012 18.8848 11.9943C18.7835 11.9685 18.9243 11.8105 18.9466 11.7985ZM18.7027 13.0128H18.6873C18.7405 12.908 18.7405 12.908 18.8024 12.7654C18.8092 12.7654 18.8144 12.7654 18.8144 12.7654C18.8178 12.7654 18.8178 12.7654 18.8178 12.7654C18.9088 12.5525 18.9501 12.4855 19.0153 12.4013C19.0085 12.4013 19.005 12.4013 19.005 12.4013C19.1802 12.2176 19.3313 12.2313 19.3382 12.2313C19.4241 12.2433 19.4705 12.3223 19.5495 12.3429C19.5598 12.3498 19.5598 12.3498 19.5752 12.3429C19.601 12.3395 19.7075 12.3429 19.7882 12.3687C19.7985 12.3687 19.8088 12.3756 19.8139 12.3756C19.8346 12.3859 19.8449 12.4219 19.8449 12.4872C19.8449 12.5078 19.8517 12.6383 19.8019 12.7448C19.7985 12.7448 19.68 12.7345 19.7556 12.5284C19.7624 12.5181 19.7624 12.5147 19.7659 12.5078C19.7624 12.5078 19.7624 12.5078 19.7556 12.5078L19.7298 12.5404C19.7332 12.5336 19.7332 12.525 19.7401 12.5181C19.704 12.5404 19.5649 12.7672 19.546 12.8925C19.5392 12.9303 19.5237 13.0196 19.3657 13.1089H19.3434C19.3296 13.1089 19.3176 13.1055 19.3021 13.1055C19.2953 13.0471 19.3124 12.9733 19.3657 12.8462C19.3726 12.853 19.376 12.853 19.3811 12.853C19.4773 12.6246 19.5065 12.5559 19.455 12.4666C19.4121 12.4632 19.3726 12.4563 19.3331 12.4511C19.1287 12.5628 18.9483 12.6847 18.8092 13.1175C18.7663 13.2395 18.7131 13.3408 18.6512 13.4078L18.6444 13.4146C18.6237 13.4301 18.6083 13.4404 18.5808 13.4301L18.5585 13.4043C18.5739 13.4043 18.5842 13.4043 18.6014 13.4078C18.586 13.3734 18.555 13.3253 18.7027 13.0128ZM17.2858 11.0325V11.0291C17.3494 10.9432 17.3906 10.8556 17.4541 10.7697C17.4919 10.7216 17.5332 10.6753 17.5761 10.622C17.5228 10.701 17.3064 11.0325 17.1639 11.2197C17.1433 11.2489 17.1295 11.2627 17.1192 11.2747C17.1502 11.2163 17.2309 11.1012 17.2858 11.0325ZM25.6825 29.8783C25.6928 29.8852 25.7049 29.8852 25.7152 29.8852H25.7615C25.6894 29.8783 25.6894 29.8783 25.6825 29.8783Z" fill="#0E9DD8"/>
<path d="M23.4512 7.06698C23.4255 7.07557 23.3911 7.08759 23.3653 7.09618C23.3653 7.09618 23.3636 7.09618 23.3636 7.09446C23.185 7.15457 23.185 7.15457 23.1713 7.15285C23.1799 7.13396 23.2022 7.13911 23.2159 7.12709C23.1919 7.11679 23.1696 7.13396 23.1455 7.13225C23.1455 7.13225 23.2039 7.10133 23.355 7.06183L23.3722 7.05668C23.4134 7.04809 23.4529 7.0395 23.4924 7.0292C23.6041 7.00343 23.6264 7 23.635 7C23.6212 7.0103 23.6212 7.0103 23.4512 7.06698Z" fill="#0E9DD8"/>
<path d="M23.5653 7.1713C23.397 7.24171 23.3987 7.23828 23.4039 7.22454C23.4176 7.19019 23.4279 7.18675 23.5189 7.15069C23.5533 7.13695 23.5567 7.13523 23.5619 7.13008C23.5361 7.12149 23.5104 7.13351 23.4846 7.13008C23.4846 7.13008 23.4829 7.12836 23.4829 7.12664C23.5052 7.10603 23.7869 6.99096 23.8624 7.01501C23.9157 7.03905 23.5756 7.17301 23.5687 7.17301C23.567 7.1713 23.5653 7.1713 23.5653 7.1713Z" fill="#0E9DD8"/>
<path d="M22.8113 7.72522C22.7632 7.75098 22.7598 7.7527 22.6997 7.77331C22.5228 7.78361 22.5228 7.78361 22.5211 7.7819C22.5039 7.72007 22.8766 7.61358 22.9195 7.60156C22.9281 7.60328 22.9367 7.605 22.9453 7.60671C22.9127 7.65137 22.9127 7.65137 22.9144 7.6548C22.9075 7.66854 22.8732 7.69259 22.8113 7.72522Z" fill="#0E9DD8"/>
<path d="M23.6745 7.61323C23.599 7.6596 23.5045 7.718 23.3465 7.62869C23.3276 7.61838 23.295 7.59949 23.1833 7.62182C23.1696 7.61152 23.1507 7.59778 23.1387 7.58747C23.1593 7.54625 23.1593 7.54625 23.2898 7.4432C23.319 7.41916 23.3276 7.38137 23.3534 7.35389C23.3602 7.34702 23.3791 7.32985 23.4289 7.29207C23.5045 7.23539 23.5491 7.20276 23.7415 7.13578C23.7346 7.13921 23.726 7.14265 23.7209 7.14608C23.7364 7.14093 23.7501 7.13406 23.7655 7.12891C23.7364 7.14093 23.7364 7.14093 23.6831 7.20104C23.678 7.19932 23.6745 7.19932 23.6694 7.19761L23.6677 7.19932C23.6522 7.21821 23.6453 7.24054 23.6282 7.25772C23.6161 7.26974 23.6058 7.27833 23.5388 7.3247C23.5423 7.3247 23.5457 7.32642 23.5491 7.32642C23.5217 7.34531 23.386 7.4432 23.3774 7.47068C23.4014 7.48786 23.4272 7.47583 23.453 7.48099C23.4804 7.48614 23.5045 7.49816 23.532 7.50331C23.5457 7.50675 23.5595 7.50847 23.5732 7.51018C23.5732 7.51018 23.6505 7.52221 23.6865 7.52049C23.7072 7.51877 23.7243 7.53938 23.7209 7.57545C23.714 7.57545 23.7072 7.57373 23.7003 7.57373C23.6968 7.58575 23.6951 7.60121 23.6745 7.61323Z" fill="#0E9DD8"/>
<path d="M28.516 8.94208C28.5211 8.95754 28.5331 9.01422 28.5074 9.10353C28.5056 9.10353 28.5039 9.10353 28.5022 9.10353L28.4988 9.11898C28.4026 9.13444 28.3511 9.1602 28.3442 9.19799C28.3322 9.27184 28.1656 9.38176 28.0797 9.35771C28.0522 9.34912 28.0127 9.31478 27.9904 9.28214C27.9664 9.24608 27.9423 9.20829 27.8393 9.20829C27.8084 9.20829 27.7774 9.22375 27.7465 9.22032C27.7379 9.22032 27.719 9.21688 27.6933 9.19455C27.6675 9.17051 27.4528 8.95926 27.5387 8.84075C27.5456 8.83045 27.5713 8.82873 27.5816 8.82701C27.7036 8.82701 27.7551 8.86308 27.8341 8.91632C27.8616 8.91461 27.8908 8.91289 27.9183 8.91117C27.999 8.88197 28.0883 8.88197 28.1587 8.82873C28.1776 8.81327 28.1914 8.8064 28.2068 8.80469C28.2068 8.80469 28.2858 8.80469 28.4249 8.87339C28.4352 8.87339 28.4455 8.87167 28.4558 8.87167L28.4799 8.88713C28.4919 8.89915 28.5091 8.92148 28.516 8.94208Z" fill="#0E9DD8"/>
<path d="M19.2623 18.9478L19.2246 18.9873C19.173 19.0422 19.0339 19.0062 18.9669 18.9546C18.9601 18.9495 18.9515 18.9426 18.948 18.9375C18.9429 18.9323 18.936 18.9237 18.9326 18.9186C18.9223 18.9066 18.9103 18.8894 18.9 18.8774C18.821 18.7795 18.7265 18.6953 18.6458 18.5991C18.6149 18.5613 18.5977 18.5133 18.5668 18.4738C18.5118 18.4051 18.3572 18.393 18.2198 18.381C17.9262 18.357 17.9262 18.357 17.9055 18.3467C17.8867 18.3364 17.8506 18.3157 17.8506 18.2264C17.8506 18.2127 17.8523 18.1938 17.854 18.1801C17.8609 18.1783 17.8712 18.1749 17.8798 18.1715L17.8781 18.1595C18.1494 18.0598 18.2284 18.0564 18.2628 18.0547C18.3332 18.065 18.4414 18.0787 18.5427 18.156C18.6355 18.2247 18.6784 18.3346 18.7488 18.4205C18.7334 18.4188 18.7179 18.4171 18.7025 18.4154C18.8295 18.5648 18.9274 18.6369 18.9944 18.6318C19.0494 18.6283 19.1078 18.697 19.1507 18.7571C19.1644 18.7589 19.1782 18.7606 19.1936 18.7606C19.2744 18.8997 19.2641 18.9409 19.2623 18.9478Z" fill="#0E9DD8"/>
<path d="M20.9235 19.6562C20.9201 19.6922 20.9046 19.718 20.9012 19.7249C20.8789 19.7575 20.8273 19.8039 20.8273 19.8056C20.7827 19.8313 20.7398 19.8245 20.7071 19.785C20.6316 19.694 20.6384 19.4363 20.7638 19.4415C20.8634 19.4552 20.8892 19.5943 20.896 19.6356C20.9063 19.6356 20.9167 19.6373 20.927 19.6373C20.9252 19.6424 20.9252 19.651 20.9235 19.6562Z" fill="#0E9DD8"/>
<path d="M34.0608 13.4525C34.0831 13.5195 34.0745 13.5899 34.0368 13.6569C34.0282 13.6706 34.0024 13.7015 33.9406 13.6689C33.7808 13.583 33.7345 13.2687 33.8186 13.2378C33.8221 13.2361 33.8255 13.2361 33.8272 13.2344C33.8667 13.2361 33.9148 13.2722 33.9784 13.3494C33.9869 13.3477 33.9955 13.346 34.0041 13.3443C34.0196 13.3683 34.0453 13.4061 34.0608 13.4525Z" fill="#0E9DD8"/>
<path d="M33.1943 13.6401C33.2012 13.6659 33.2012 13.6659 33.1806 13.7157C33.1548 13.7758 33.0724 13.7586 33.0569 13.7157C33.0484 13.695 33.0587 13.6349 33.0672 13.6075C33.0672 13.6075 33.0707 13.5989 33.0758 13.592C33.0793 13.5868 33.0844 13.5851 33.0879 13.58C33.0913 13.5748 33.093 13.568 33.0982 13.5628C33.105 13.5542 33.1102 13.5525 33.1171 13.5508C33.1548 13.5508 33.1858 13.6109 33.1943 13.6401Z" fill="#0E9DD8"/>
<path d="M35.0484 13.9725C35.0776 14.0789 34.9917 14.1597 34.923 14.1202C34.9161 14.1167 34.9076 14.1098 34.9007 14.1047C34.8543 14.0703 34.8148 14.0257 34.7684 13.9913C34.7307 13.9621 34.6843 13.9467 34.6465 13.9175C34.6036 13.8849 34.5847 13.8642 34.5692 13.8471C34.5074 13.7767 34.5812 13.7509 34.5967 13.7475C34.6001 13.7475 34.6036 13.7457 34.607 13.744C34.6242 13.7423 34.7856 13.732 34.8303 13.744C34.8801 13.7578 34.9179 13.8024 34.9539 13.8454C34.9625 13.8436 34.9694 13.8419 34.978 13.8402L35.0055 13.878C35.0209 13.9072 35.0398 13.9381 35.0484 13.9725Z" fill="#0E9DD8"/>
<path d="M30.6874 10.9332C30.708 10.9796 30.7097 11.0139 30.7114 11.0328C30.7063 11.0328 30.7028 11.0345 30.6977 11.0345C30.6994 11.0775 30.7028 11.129 30.6651 11.196C30.6376 11.2475 30.5191 11.3746 30.5053 11.3849C30.4452 11.4313 30.38 11.4622 30.2683 11.3557C30.2202 11.311 30.1481 11.22 30.179 11.1651C30.1945 11.1359 30.1996 11.1273 30.1859 11.0895C30.155 11.007 30.0777 10.9538 30.0502 10.8679C30.0365 10.8233 30.0365 10.8233 30.0777 10.7546C30.0966 10.7529 30.1138 10.7511 30.1309 10.7494C30.1584 10.7357 30.1601 10.7323 30.167 10.6601C30.1722 10.6 30.1756 10.5536 30.2632 10.5433C30.3971 10.5365 30.471 10.6292 30.5311 10.7048C30.5397 10.7031 30.5483 10.7031 30.5551 10.7013C30.6445 10.8336 30.684 10.9229 30.6874 10.9332Z" fill="#0E9DD8"/>
<path d="M31.8464 11.1467C31.8774 11.2772 31.8104 11.3975 31.776 11.4163C31.74 11.437 31.6644 11.4249 31.551 11.406C31.3604 11.3751 31.3415 11.3803 31.3175 11.4026C31.2762 11.437 31.314 11.5228 31.2453 11.5348C31.2282 11.5383 31.2007 11.5177 31.2007 11.516C31.1818 11.5005 31.1612 11.4627 31.1646 11.3803C31.0581 11.3562 30.8864 11.4988 30.84 11.3528C30.816 11.2789 30.9121 10.9166 30.9448 10.8513C30.9551 10.8324 30.9671 10.8049 30.9705 10.7826C30.9362 10.7414 30.9156 10.7311 30.737 10.6813C30.5978 10.6418 30.4879 10.6109 30.1977 10.3189C30.0826 10.2021 30.0259 10.0561 30.1221 10.0613C30.2475 10.0664 30.2475 10.0664 30.2475 10.0338C30.2475 9.97882 30.2475 9.88608 30.3145 9.86719C30.3179 9.86719 30.3179 9.86719 30.4175 9.89982C30.4244 9.90154 30.4244 9.90154 30.6648 9.91356C30.6202 9.92043 30.5738 9.92558 30.5274 9.93245C30.6992 9.92558 30.8417 9.93245 30.8589 10.1059C30.8623 10.1059 30.8658 10.1042 30.8692 10.1042C30.8641 10.3206 30.8641 10.3206 30.986 10.4202C30.9774 10.4219 30.9671 10.4219 30.9585 10.4236C31.0375 10.4872 31.1131 10.5542 31.1921 10.6194C31.2007 10.6177 31.211 10.616 31.2196 10.616C31.357 10.7259 31.5218 10.7929 31.6592 10.9045C31.6489 10.9063 31.6386 10.908 31.6283 10.9097C31.776 11.0333 31.8001 11.0814 31.8207 11.1209C31.8241 11.1209 31.8276 11.1192 31.831 11.1192C31.8327 11.1192 31.8361 11.1192 31.8379 11.1175C31.8396 11.1278 31.843 11.1381 31.8464 11.1467Z" fill="#0E9DD8"/>
<path d="M30.361 6.98438V6.98781H30.3678V6.98438C30.361 6.98438 30.361 6.98438 30.361 6.98438ZM38.2149 16.2072C38.2081 16.2037 38.2081 16.1934 38.2081 16.1866C38.093 16.3085 37.9711 16.4287 37.8491 16.5455C37.9539 16.8942 38.0604 17.339 38.1291 17.8817C38.2081 17.8027 38.2871 17.7306 38.3558 17.6619C38.3249 17.205 38.2716 16.6675 38.2149 16.2072ZM38.3678 17.825C38.2991 17.892 38.2252 17.9676 38.1462 18.0414C38.1892 18.4004 38.2098 18.7937 38.2029 19.2334C38.2939 19.1114 38.373 18.9311 38.373 17.9401V17.8182C38.373 17.8182 38.373 17.8182 38.3678 17.825ZM38.3111 19.3879C38.3111 19.3982 38.3043 19.4017 38.3043 19.4137C38.2716 19.5717 38.2613 19.6043 38.2407 19.7039V19.7142C38.2184 19.7933 38.1926 19.8946 38.1651 19.9736C38.1548 19.9375 38.1445 19.8946 38.1394 19.862C38.1462 19.8259 38.1462 19.8207 38.1462 19.8207C38.1772 19.582 38.1772 19.582 38.1823 19.4446C38.1754 19.4085 38.1754 19.4017 38.1754 19.4017C38.172 19.3227 38.172 19.2179 38.1651 19.1389C38.1651 19.132 38.172 19.132 38.172 19.1286C38.1651 19.0015 38.1394 18.8761 38.1188 18.7473L38.1119 18.7542C38.1016 18.6632 38.0964 18.5687 38.0793 18.4794C38.0861 18.4794 38.0861 18.4725 38.0913 18.4725V18.4588C38.0758 18.3317 38.0535 18.2681 38.0157 18.1617C36.9423 19.2076 35.1269 20.8667 32.7774 22.6133C32.9423 22.6099 33.1055 22.6099 33.2583 22.5309C33.528 22.3866 33.6138 22.0122 33.9625 21.9762C34.0312 21.9693 34.0312 21.9693 34.4193 22.5773C34.5722 22.5567 34.5945 22.5567 34.8212 22.2973C35.0153 22.4656 35.0222 22.488 35.0119 22.6099C34.9741 23.0204 34.6203 23.2969 34.5447 23.6902C34.5293 23.7589 34.5241 23.8276 34.5293 23.8963C35.6903 23.108 36.8101 22.2973 37.8903 21.4626C37.9006 21.43 37.911 21.3974 37.9213 21.3579L37.9281 21.3424C37.9384 21.3046 37.9487 21.2668 37.959 21.2308C37.9711 21.1878 37.9814 21.1449 37.9917 21.1157C38.002 21.0676 38.002 21.0676 38.002 21.0676C38.0243 20.9955 38.0398 20.9405 38.0501 20.8941C38.0604 20.8478 38.0707 20.8048 38.081 20.7568C38.093 20.7207 38.1033 20.6709 38.1136 20.6194C38.1239 20.5833 38.1291 20.5404 38.1394 20.4974C38.1462 20.4837 38.1462 20.4665 38.1497 20.451V20.4442C38.1565 20.4287 38.1565 20.4133 38.1617 20.4012C38.1617 20.3978 38.1651 20.3875 38.1651 20.3806C38.1651 20.3652 38.172 20.348 38.172 20.3377C38.1754 20.3119 38.1754 20.3119 38.1754 20.3119C38.1875 20.2535 38.1978 20.19 38.2081 20.1282C38.2149 20.1024 38.2149 20.0801 38.2184 20.0526C38.2252 20.0268 38.2287 19.9994 38.2338 19.9702C38.2407 19.9547 38.2407 19.9427 38.2407 19.9324C38.2441 19.9289 38.2441 19.9221 38.2441 19.9169C38.251 19.8808 38.251 19.8757 38.251 19.8757C38.2613 19.807 38.2716 19.716 38.2836 19.6473C38.2836 19.6267 38.2871 19.6164 38.2871 19.6061C38.2939 19.5734 38.2939 19.5734 38.2939 19.5734C38.2974 19.4978 38.3094 19.4103 38.3197 19.3364C38.3146 19.3553 38.3146 19.3708 38.3111 19.3879ZM37.9127 17.8869C37.9058 17.8336 37.9058 17.8285 37.9127 17.8285C37.8972 17.6773 37.8972 17.6773 37.8766 17.4541C37.8663 17.4008 37.8611 17.3957 37.8611 17.3957C37.8543 17.3321 37.8457 17.2445 37.8354 17.1758C37.8285 17.1071 37.8285 17.1003 37.8354 17.1003C37.8028 16.8942 37.7993 16.8839 37.7564 16.7362C37.7409 16.6829 37.7341 16.6898 37.7306 16.6898C37.7306 16.6829 37.7237 16.6795 37.7237 16.6743C37.655 16.7465 37.5812 16.8169 37.5125 16.8856C35.6336 18.7336 33.485 20.3755 31.3142 21.8061C31.3829 21.8748 31.4481 21.9607 31.4842 22.0586C31.7435 22.7731 32.0132 22.9156 32.1231 22.9414C32.1351 22.9482 32.1454 22.9482 32.1523 22.9482C32.166 22.9259 32.1883 22.9053 32.209 22.883C32.2158 22.8727 32.2244 22.8675 32.2313 22.8572C32.2193 22.8641 32.2158 22.8641 32.209 22.8641L32.2313 22.8057C32.2622 22.7696 32.288 22.7061 32.336 22.6838C32.4099 22.6477 32.4838 22.6305 32.5628 22.6202C34.981 20.834 36.8496 19.1337 37.9659 18.0466C37.9453 17.9985 37.923 17.9332 37.9127 17.8869ZM38.1565 15.9118V15.898C38.0878 15.6387 38.0878 15.6387 38.0552 15.5271C38.0346 15.4515 38.002 15.357 37.9762 15.2849L37.9831 15.278C37.9075 15.0668 37.9075 15.0668 37.868 14.9517C37.8526 14.8985 37.8526 14.8985 37.8526 14.8985C37.8302 14.8177 37.8045 14.713 37.7873 14.634C37.8732 14.8298 37.9522 15.0668 38.0106 15.242C37.9247 14.9259 37.8199 14.5618 37.7186 14.2493C37.7049 14.196 37.6825 14.1445 37.6654 14.0895C37.6293 14.0002 37.5967 13.9161 37.5657 13.8422C37.4867 13.6516 37.4215 13.5039 37.3682 13.3768C37.3579 13.3562 37.3476 13.3304 37.3373 13.3081C37.2721 13.1604 37.2257 13.0505 37.1776 12.956C37.1312 12.865 37.0814 12.7757 37.0419 12.6864C37.0265 12.6537 37.0093 12.6211 36.9887 12.585C36.9732 12.5593 36.956 12.5266 36.9406 12.4957C36.9303 12.4803 36.92 12.4631 36.9148 12.4476C36.9079 12.4322 36.8994 12.4167 36.8891 12.4013C36.8736 12.3686 36.853 12.3429 36.8358 12.3171C36.8255 12.3017 36.8135 12.2845 36.8032 12.2707C36.7997 12.2553 36.7877 12.2381 36.7774 12.2227C36.7087 12.111 36.652 12.0114 36.5988 11.9272C36.4614 11.7074 36.3687 11.5631 36.2862 11.4412C36.2708 11.4154 36.2536 11.3948 36.2381 11.3725C36.1334 11.2093 36.0303 11.0823 35.862 10.8659C35.8517 10.8504 35.8362 10.8332 35.8259 10.8229C35.8105 10.8075 35.8002 10.7972 35.7933 10.78L35.7727 10.7594C35.7572 10.737 35.7401 10.7216 35.7298 10.7061C35.6439 10.6048 35.57 10.5206 35.5031 10.4416C35.4498 10.3832 35.4069 10.33 35.3657 10.2836C35.3227 10.2355 35.2867 10.1943 35.2472 10.1565C35.2059 10.1033 35.1647 10.0569 35.1218 10.014C35.0565 9.94529 34.9895 9.88174 34.9243 9.81304C34.8504 9.73748 34.7714 9.65847 34.6924 9.58634C34.6632 9.56058 34.6375 9.5331 34.6065 9.50562C34.5997 9.50218 34.5962 9.49531 34.5911 9.49188C34.5842 9.48501 34.5756 9.47986 34.5705 9.46955C34.5636 9.46612 34.555 9.45925 34.5481 9.45409C34.4794 9.39742 34.4159 9.34418 34.3575 9.29265C34.3111 9.24972 34.2682 9.21193 34.2253 9.17586C34.0982 9.0711 33.9986 8.99209 33.9092 8.91653C33.8079 8.83409 33.722 8.76539 33.643 8.70528C33.6104 8.68467 33.5846 8.66234 33.5572 8.64173C33.5108 8.6091 33.461 8.57303 33.4146 8.5404C33.3614 8.49746 33.303 8.4614 33.2446 8.42533C33.2137 8.403 33.181 8.37724 33.145 8.35663C33.0917 8.324 33.0402 8.28793 32.9904 8.26217C32.8427 8.16771 32.7173 8.09214 32.6091 8.02516C32.4477 7.92383 32.3257 7.84826 32.2038 7.78643C32.1351 7.75037 32.0664 7.70743 31.9908 7.6748C31.9342 7.64388 31.8758 7.61125 31.8157 7.58549C31.7796 7.56488 31.7367 7.54942 31.6937 7.52709C31.6473 7.50477 31.5958 7.48072 31.5409 7.45496C31.522 7.44637 31.5048 7.43607 31.4859 7.4292L31.4447 7.41374L31.4327 7.40687H31.4224C31.3914 7.39657 31.3588 7.39313 31.333 7.38111C31.3073 7.3708 31.2901 7.36737 31.2798 7.3605C31.3107 7.39313 31.3107 7.39313 31.3107 7.39313C31.3863 7.4292 31.4807 7.47557 31.5546 7.5082C31.5804 7.52366 31.5804 7.52366 31.5804 7.52366C31.5872 7.52709 31.5924 7.53397 31.5924 7.53397C31.613 7.55973 31.6456 7.59236 31.6662 7.61297C31.6199 7.60953 31.6199 7.60953 31.6199 7.61297C31.6765 7.65591 31.7418 7.72804 31.7882 7.783C31.8414 7.81391 31.8998 7.84998 31.9531 7.88776C31.8672 7.84483 31.759 7.78643 31.6765 7.7435C31.613 7.70743 31.5975 7.70056 31.5941 7.70056L31.5598 7.69025C31.5975 7.71602 31.7298 7.7933 32.1866 8.06466C32.1214 8.03375 32.0389 7.99768 31.9805 7.96505C32.1025 8.11962 32.1025 8.11962 32.3618 8.27763H32.2502C32.2605 8.29309 32.2725 8.32057 32.2828 8.33431C32.2072 8.3137 32.1128 8.27076 32.0441 8.22954C31.9908 8.20378 31.9908 8.20378 31.9874 8.20378C31.9548 8.18832 31.9118 8.17286 31.8826 8.15741C31.9136 8.15741 31.9616 8.15054 31.9926 8.15054C31.9462 7.95646 31.8929 7.93413 31.5443 7.79674C31.5117 7.78643 31.5065 7.78643 31.5065 7.78643C31.4756 7.77613 31.4327 7.76067 31.3966 7.75037C31.3416 7.783 31.242 7.79674 31.1802 7.78643C31.1115 7.76582 31.0995 7.76067 31.0995 7.75552C31.0256 7.73319 31.0256 7.73319 30.5928 7.62843C30.5859 7.6353 30.5825 7.6353 30.5774 7.6353C30.4949 7.61984 30.3764 7.59751 30.2905 7.58721C30.2905 7.61984 30.2871 7.66621 30.2871 7.70228C30.2974 7.7246 30.2974 7.7246 30.2974 7.7246C30.3455 7.79674 30.4022 7.89292 30.4451 7.96677C31.2764 9.59836 31.4516 9.9367 31.6731 9.9367C31.7315 9.9367 31.7916 9.91094 31.8706 9.88346C31.8586 9.84568 31.8449 9.79759 31.8328 9.76667C31.8225 9.73576 31.8225 9.73576 31.8294 9.73061C31.8191 9.69798 31.8071 9.6516 31.7968 9.61554C32.0458 9.7787 32.2244 10.0157 32.4425 10.2115C32.561 10.1703 32.5971 10.1548 32.7019 9.98479C32.6916 9.94872 32.6761 9.89548 32.6589 9.85942C32.6057 9.80102 32.6023 9.80102 32.5954 9.80102C32.549 9.74263 32.4941 9.66363 32.458 9.60008H32.4649C32.4322 9.53138 32.3893 9.44551 32.3532 9.37681C32.3 9.30811 32.2845 9.2978 32.2794 9.2978C32.1832 9.2188 32.1832 9.2188 31.9668 9.14667C31.9771 9.14667 31.9805 9.14667 31.9874 9.1398C31.85 9.03847 31.85 9.03847 31.8019 8.9234C31.8122 8.89076 31.8277 8.84439 31.838 8.81176C31.8054 8.76539 31.7693 8.69669 31.7332 8.65375C31.6697 8.58506 31.5855 8.51636 31.5168 8.46312C31.4412 8.40987 31.4412 8.40987 31.4412 8.40987C31.4739 8.39442 31.5168 8.36694 31.5494 8.35148C31.7023 8.40472 31.7126 8.40472 31.8397 8.62112C31.9548 8.87359 31.9616 8.88046 32.5181 9.25143C32.6727 8.95603 32.8994 9.13464 33.0213 9.23598C32.8084 9.37337 32.8084 9.37337 32.7774 9.44722C32.8513 9.48329 32.9526 9.53825 33.0248 9.57432C32.9938 9.59493 32.9561 9.62756 32.9251 9.64645C32.9458 9.80102 32.9458 9.83709 33.2635 10.1909C33.2377 10.2441 33.2257 10.2493 33.2102 10.2544C32.9801 10.2115 32.8874 10.2974 32.8547 10.3403H32.8393C32.7534 10.3764 32.7534 10.3832 32.7534 10.3832H32.75C32.75 10.3832 32.75 10.3832 32.7431 10.3832C32.7431 10.3832 32.7431 10.3832 32.7362 10.3832C32.7328 10.3832 32.7328 10.3832 32.7328 10.3832C32.7259 10.3867 32.7259 10.3867 32.7259 10.3867C32.7225 10.3867 32.7225 10.3867 32.7225 10.3867C32.7105 10.3867 32.7002 10.3936 32.6847 10.3936C32.6813 10.4004 32.671 10.4004 32.6641 10.4004C32.6538 10.4004 32.6486 10.4039 32.6435 10.4039C32.6366 10.4039 32.6366 10.4039 32.6315 10.4039C32.628 10.4107 32.628 10.4107 32.6211 10.4107C32.6143 10.4107 32.6143 10.4107 32.6143 10.4107L32.561 10.4365C32.5078 10.4107 32.5044 10.4159 32.4923 10.4159C32.4666 10.3935 32.4254 10.3609 32.3996 10.3352C32.3189 10.2527 32.3086 10.2355 32.2914 10.2201C32.2983 10.2132 32.3034 10.2132 32.3069 10.2132C32.1488 9.99681 32.1488 9.99681 32.0166 9.97105C32.0011 10.0037 31.9737 10.0398 31.9513 10.0724C32.0595 10.342 32.0595 10.342 32.4116 10.6374H32.3859C32.3172 10.6271 32.221 10.6306 32.154 10.6443C32.1385 10.6701 32.1162 10.7078 32.1059 10.7267L32.0956 10.7422C32.0887 10.8332 32.0853 10.9586 32.0801 11.0496C32.0544 11.0908 32.0338 11.096 32.0114 11.096C31.9754 11.1218 31.9221 11.1595 31.8964 11.2008C31.917 11.2798 31.9427 11.3845 31.9702 11.4601C31.9273 11.5065 31.9273 11.5065 31.5477 11.7349C31.5099 11.7761 31.5099 11.7761 31.5099 11.7761C31.4533 11.819 31.3743 11.862 31.309 11.8877C31.309 11.9238 31.309 11.9736 31.3056 12.0045C31.9084 12.1832 32.0561 12.2244 32.1025 12.8581C31.7968 13.1003 31.4378 12.9217 31.1029 12.9955C30.993 13.1638 31.0617 14.2098 31.5271 14.5945C31.8071 14.5481 31.8071 14.5481 32.0406 14.8469C32.0664 14.816 32.099 14.78 32.1196 14.7473C32.13 14.725 32.1351 14.725 32.142 14.725C32.1454 14.6889 32.1574 14.6426 32.1626 14.6048C32.178 14.5928 32.1883 14.5825 32.2055 14.5773C32.561 14.5996 32.6606 14.3764 32.6984 14.2939C32.719 14.2407 32.7122 14.2407 32.7087 14.2407C32.7448 14.1754 32.7826 14.0913 32.8084 14.0277C32.7654 13.9556 32.7774 13.9556 32.7877 13.9556C32.6916 13.8182 32.6864 13.8113 32.762 13.5949C32.7723 13.5485 32.7723 13.5485 32.7654 13.5485L32.7877 13.485C32.841 13.4369 32.92 13.3785 32.9887 13.351C32.9956 13.315 32.999 13.272 33.0041 13.2411H33.0248C32.9612 12.9337 32.9612 12.9337 32.9887 12.8444C33.2841 12.9028 33.2841 12.9028 33.3803 12.8804C33.4026 12.8495 33.4284 12.8083 33.449 12.7688C33.4747 12.7053 33.528 12.6263 33.5812 12.585C33.8989 12.6864 33.8989 12.6864 35.1372 13.8422C35.1836 13.7941 35.1802 13.7941 35.1733 13.7941C35.1424 13.7306 35.0943 13.643 35.0617 13.5777C35.0479 13.5417 35.0514 13.5417 35.0582 13.5365C34.9363 13.3304 34.9311 13.3201 34.9105 13.2549C34.9432 13.2411 34.9792 13.2188 35.0101 13.2016C35.017 13.1982 35.017 13.1913 35.017 13.181L35.0325 13.1655C34.9792 13.1329 34.9689 13.1329 34.9569 13.1398C34.7525 12.9972 34.713 12.9766 34.6409 12.9337C34.6512 12.9337 34.6615 12.9303 34.677 12.9303L34.6563 12.9148C34.4588 12.8135 34.4434 12.8032 34.2957 12.6761C34.239 12.6194 34.239 12.6194 34.239 12.6194C34.2321 12.6194 34.2235 12.6194 34.2167 12.6228C34.1531 12.5696 34.069 12.5009 34.0003 12.4545C33.947 12.4064 33.9573 12.4064 33.9694 12.4013C33.9161 12.3532 33.8577 12.2793 33.8251 12.2175C33.911 12.2055 34.6873 12.1694 35.7469 14.2115C35.7675 14.1857 35.7933 14.1479 35.8156 14.1187C35.8259 14.0603 35.8259 14.0603 35.8311 14.0603C35.8414 13.9281 35.8517 13.801 35.8672 13.6739C35.8569 13.6172 35.8569 13.6104 35.8517 13.6104L35.8311 13.5468C35.7985 13.4884 35.7452 13.4146 35.6989 13.3665C35.7023 13.3631 35.7126 13.3631 35.7195 13.3562C35.6662 13.3132 35.5975 13.2514 35.5494 13.2085C35.5615 13.1501 35.5718 13.0711 35.5821 13.0075V12.9646C35.6181 12.9577 35.6576 12.9543 35.6937 12.9491C36.0698 13.619 36.0698 13.619 36.4082 13.8354C36.4339 13.8147 36.4717 13.789 36.4975 13.7667C36.6246 13.789 36.6847 13.7993 36.7414 13.6086C36.9801 13.8147 37.1123 14.6031 37.1656 14.8985C37.145 14.9242 37.1123 14.962 37.09 14.9929C37.0763 14.9637 37.0436 14.9277 37.023 14.9019C36.8581 14.9706 36.8581 14.9706 36.7997 15.5408C36.7929 15.5408 36.7894 15.5442 36.7843 15.5442C36.7809 15.5442 36.7688 15.5511 36.7637 15.5511L36.7534 15.5356C36.7465 15.467 36.7568 15.3673 36.7637 15.2986C36.774 15.2506 36.774 15.2506 36.774 15.2506C36.7997 14.9809 36.7997 14.9809 36.7207 14.8761C36.5988 14.8916 36.4837 14.9448 36.3549 14.9345C36.3446 14.938 36.3292 14.9448 36.3189 14.9448C36.2536 14.9122 36.1746 14.8761 36.1059 14.8504C36.0595 15.0737 36.0956 15.3004 36.0801 15.5202C36.0492 15.5425 36.0166 15.5683 35.9908 15.5889C35.9548 15.5734 35.9118 15.5528 35.8792 15.5356C35.8689 15.515 35.8792 15.515 35.8895 15.5099C35.7143 15.4051 35.5237 15.3192 35.3502 15.2076C35.3244 15.2042 35.3038 15.2076 35.2867 15.2145C34.9483 15.0925 34.9483 15.0925 34.8487 15.0135C34.859 15.0135 34.8745 15.0067 34.8848 15.0067C34.6357 14.8281 34.6357 14.8281 34.5928 14.7697C34.6357 14.701 34.701 14.6065 34.7525 14.543C34.7268 14.4794 34.6873 14.3953 34.6615 14.33C34.6718 14.33 34.677 14.33 34.6873 14.3266L34.6615 14.2905C34.1652 13.5915 32.9835 14.5378 32.8839 14.6288L32.8771 14.6323C32.5439 14.9277 32.1196 15.0857 31.7779 15.3605L31.7298 15.4034C31.6662 15.4979 31.5288 15.6937 31.5769 16.2055C31.5872 16.2999 31.5975 16.4339 31.5769 16.5301C31.5546 16.597 31.455 16.6451 31.4017 16.6881C31.1458 16.8667 31.1458 16.8667 30.6117 18.2973C30.3627 18.9689 30.9346 19.6919 30.4692 20.3463L30.4468 20.3686L30.44 20.372C30.5361 20.6571 30.44 20.98 30.6169 21.2445C30.7594 21.4609 31.0119 21.5605 31.2128 21.7185C33.3992 20.2896 35.5529 18.6408 37.4318 16.7928C37.5176 16.707 37.607 16.6228 37.6911 16.5335C37.6757 16.4906 37.6654 16.4545 37.655 16.4184C37.655 16.4184 37.6585 16.4116 37.6654 16.4116C37.6327 16.3171 37.5967 16.1952 37.564 16.1058C37.528 16.0217 37.5211 16.0165 37.5176 16.0165C37.4919 15.9478 37.4524 15.8568 37.4266 15.7881C37.4163 15.7521 37.4232 15.7521 37.4266 15.7469L37.406 15.704C37.4215 15.6713 37.449 15.6284 37.4644 15.5975C37.4644 15.6043 37.6396 15.8791 37.8131 16.4167C37.9384 16.2896 38.0604 16.1642 38.1892 16.0423V16.0354C38.1772 15.9959 38.1669 15.9599 38.1565 15.9118ZM32.9973 9.05908C32.9715 9.05221 32.8702 9.02645 32.7482 8.92168L32.7328 8.90622C32.707 8.88046 32.6692 8.84268 32.707 8.84268C32.7551 8.84268 32.9148 8.92683 32.9938 8.99038C33.0007 8.99381 33.0093 9.00068 33.0162 9.01099L33.0368 9.04362C33.023 9.04877 33.0127 9.05221 32.9973 9.05908ZM36.3412 12.5163C36.3378 12.5163 36.3378 12.5163 36.1832 12.4167C36.19 12.4099 36.1986 12.4099 36.2055 12.4047C35.9393 12.2312 35.9891 12.5266 35.9891 12.5318C36.0097 12.6263 36.0097 12.6263 36.0028 12.6469C35.9891 12.6795 35.9668 12.6847 35.8878 12.7018C35.8019 12.7224 35.8672 12.8272 35.8294 12.8804C35.8191 12.877 35.8139 12.877 35.8088 12.8598C35.7658 12.7843 35.7401 12.7053 35.6971 12.6263C35.704 12.6263 35.7074 12.6263 35.7074 12.6263C35.6439 12.4992 35.5391 12.3996 35.491 12.2673H35.4876C35.4618 12.1814 35.4447 12.087 35.4189 12.0028L35.4223 11.9994C35.3863 11.8877 35.3485 11.8036 35.2798 11.661L35.2643 11.6233C35.2643 11.6233 35.2643 11.6233 35.2609 11.6233C35.2025 11.4721 35.2386 11.4618 35.2609 11.4652C35.2918 11.4756 35.4618 11.6456 35.6525 11.862C35.6782 11.8877 35.6834 11.8929 35.6954 11.8929C35.6989 11.8895 35.7212 11.7349 35.5615 11.4876C35.5615 11.4876 35.5615 11.4876 35.558 11.4876C35.479 11.333 35.5511 11.3244 35.5511 11.3244C35.5615 11.3244 35.5872 11.3347 35.637 11.4498L35.6405 11.4876C35.6559 11.5563 35.6628 11.5597 35.6954 11.5923C35.7624 11.6559 35.8586 11.692 35.9324 11.7555C36.1866 11.9599 36.324 12.0767 36.4356 12.2982C36.5112 12.4545 36.3669 12.5232 36.3412 12.5163ZM37.0539 12.9303C37.0505 12.9337 37.0505 12.9337 37.0505 12.9337C37.0076 12.8616 36.9646 12.7911 36.9183 12.6967C36.9183 12.6898 36.9183 12.6898 36.9183 12.6898C36.8805 12.6211 36.8599 12.585 36.8427 12.5473C36.8496 12.5215 36.8496 12.5043 36.731 12.2673C36.731 12.2604 36.7276 12.2604 36.7276 12.2604C36.6692 12.1557 36.6314 12.1059 36.5679 12.0698C36.5679 12.0664 36.5679 12.0595 36.5748 12.0543C36.5421 12.0389 36.5421 12.0389 36.3206 11.7589C36.3206 11.7658 36.3137 11.7658 36.3137 11.7692C36.257 11.6971 36.2089 11.637 36.1557 11.5752L36.1454 11.5597C36.1454 11.5563 36.1454 11.5563 36.1454 11.5563C36.0664 11.4549 35.9977 11.3605 35.9015 11.2059C35.838 11.1011 35.838 11.1011 35.838 11.084C35.8517 11.0805 35.8689 11.0908 35.8843 11.0908C35.8843 11.0908 35.8843 11.0908 35.8843 11.084C35.8843 11.0702 35.8843 11.0582 35.7693 10.883C35.7469 10.8521 35.7263 10.8195 35.704 10.7886C35.7796 10.7886 36.0526 11.1595 36.0526 11.1595C36.0647 11.175 36.0818 11.1956 36.0904 11.2282C36.0836 11.2282 36.0801 11.2282 36.075 11.2317C36.0595 11.2111 36.0423 11.1956 36.0269 11.1784C36.0269 11.2317 36.2759 11.57 36.2759 11.57C36.2759 11.5666 36.2759 11.5666 36.2759 11.5597C36.2965 11.57 36.7311 12.1076 37.1381 12.9062C37.1742 12.9818 37.2068 13.0436 37.2137 13.102C37.2034 13.0986 37.1243 13.0505 37.0539 12.9303ZM33.4576 26.8795C32.5559 28.1213 31.759 28.5798 31.23 28.8804C31.4309 28.834 31.7641 28.7018 32.0492 28.5541C32.1179 28.5163 32.2072 28.463 32.2828 28.427C32.3137 28.4064 32.3137 28.4064 32.3137 28.4064C32.458 28.3256 32.5267 28.2896 32.7053 28.1779C32.7706 28.1367 32.865 28.0835 32.9286 28.0423C32.9646 28.0165 32.9646 28.0165 32.9646 28.0165C33.1398 27.9049 33.1518 27.8946 33.2669 27.8104C33.2927 27.7881 33.2995 27.7846 33.2995 27.7846C33.3562 27.7417 33.4318 27.6833 33.4885 27.6369C33.4885 27.6369 33.4953 27.6369 33.4953 27.6301C33.6224 27.5408 33.7495 27.4566 33.8766 27.3673C33.9024 27.345 33.9127 27.3347 33.923 27.3312C33.9814 27.2763 34.0604 27.2093 34.1205 27.1612C34.1205 27.1543 34.1239 27.1543 34.1239 27.1543C34.1926 27.0908 34.2785 27.0118 34.3472 26.9499C34.3833 26.9122 34.3901 26.907 34.3901 26.9019L34.4159 26.8812C34.4417 26.8555 34.4846 26.8177 34.5121 26.7868C34.598 26.7112 34.598 26.7112 34.598 26.7112C34.7302 26.5858 34.7457 26.5755 34.8779 26.4484C34.9311 26.3952 34.9311 26.3952 34.9311 26.3952C34.9844 26.342 35.0634 26.2681 35.1149 26.2149C35.1682 26.1616 35.1682 26.1616 35.1682 26.1616C35.2695 26.062 35.2867 26.0466 35.4223 25.8989C35.4979 25.813 35.4979 25.813 35.4979 25.813C35.5443 25.7546 35.613 25.6807 35.6662 25.6172C35.6885 25.5914 35.6954 25.5914 35.6954 25.5863L35.7263 25.5433C35.7796 25.4798 35.8448 25.3956 35.8912 25.3321C35.9341 25.2737 35.9376 25.2668 35.9376 25.2668C35.9805 25.2033 36.0389 25.1243 36.087 25.0624C35.2248 25.691 34.3524 26.299 33.4576 26.8795ZM37.2308 22.1221C36.9921 22.2956 36.7534 22.4742 36.5146 22.6511C36.3034 22.8023 36.0922 22.9568 35.8792 23.108C35.4344 23.4205 34.9913 23.7314 34.5396 24.0388C34.5619 24.2758 34.6306 24.5077 34.5945 24.7516C34.5688 24.8838 34.2493 25.6223 34.2442 25.6275C34.0398 26.0019 33.8388 26.3299 33.6362 26.6202C33.8594 26.4725 34.0861 26.3248 34.3094 26.1702C34.981 25.7168 35.6422 25.2411 36.2879 24.7619C36.2948 24.755 36.2982 24.7464 36.3034 24.7361C36.3137 24.7207 36.3137 24.7138 36.3137 24.7138C36.3463 24.6503 36.3893 24.573 36.4253 24.5094L36.4322 24.5026C36.4786 24.4235 36.537 24.3188 36.5799 24.2398C36.6057 24.1865 36.6108 24.1745 36.6108 24.1711C36.6435 24.1058 36.6864 24.0268 36.719 23.965C36.7396 23.9324 36.7396 23.9324 36.7448 23.9324C36.8015 23.8173 36.8667 23.7056 36.9234 23.5906C36.9337 23.5717 36.9389 23.5648 36.9423 23.5579H36.9406C36.9887 23.4858 37.0419 23.3896 37.0831 23.3158C37.1055 23.2728 37.1055 23.2728 37.1123 23.2728C37.1759 23.1475 37.1913 23.1217 37.2755 22.9517C37.3133 22.8727 37.3184 22.8624 37.3184 22.8572L37.3287 22.8418C37.3614 22.7748 37.4043 22.6838 37.4369 22.6151C37.4575 22.5721 37.4575 22.5721 37.4575 22.5721C37.5434 22.3832 37.5623 22.33 37.6482 22.129C37.6739 22.0655 37.7169 21.971 37.7444 21.9092C37.7873 21.8044 37.7873 21.8044 37.7873 21.8044C37.8079 21.7512 37.8234 21.7134 37.8337 21.6704V21.667C37.6327 21.8147 37.4318 21.9693 37.2308 22.1221ZM37.0711 22.7868C37.0144 22.9414 36.8873 23.1938 36.798 23.3209C36.7912 23.3244 36.7826 23.3312 36.7757 23.3364C36.7654 23.3209 36.7826 23.278 36.8341 23.1354C36.8324 23.1372 36.8272 23.1372 36.8255 23.1372C36.8547 23.0479 36.8856 22.9809 36.9234 22.8795C36.9303 22.8795 36.9337 22.8795 36.9337 22.8795C36.956 22.8263 36.9715 22.7971 36.9887 22.7645C37.0453 22.6597 37.0986 22.6528 37.1037 22.67C37.1037 22.6717 37.114 22.6872 37.0711 22.7868ZM30.8951 7.17845C30.8917 7.17845 30.8848 7.17501 30.8814 7.17501C30.859 7.16299 30.8384 7.15956 30.8161 7.14925C30.8315 7.15956 30.8539 7.16986 30.8693 7.17501C30.8848 7.17845 30.902 7.18532 30.9174 7.18875C30.9071 7.1836 30.9002 7.17845 30.8951 7.17845ZM30.3558 6.98438L30.3627 6.98781V6.98438H30.3558Z" fill="#0E9DD8"/>
<path d="M29.5431 6.7667C29.6822 6.80105 29.7853 6.83025 29.9106 6.86803C29.9948 6.8938 30.0068 6.89895 30.0206 6.9041C30.0154 6.9041 30.0068 6.9041 30.0017 6.90754C30.0498 6.95562 30.4585 7.10504 30.699 7.19092V7.19264C30.7848 7.22355 30.8724 7.24931 30.9583 7.28023C30.9583 7.28023 30.9583 7.27851 30.9566 7.27851C31.1352 7.34721 31.2022 7.38327 31.2279 7.40045C31.2262 7.40045 31.015 7.3953 30.5994 7.19951L30.5856 7.19435C30.4791 7.14455 30.3847 7.10504 30.2988 7.0707C30.0721 6.97795 29.8351 6.91956 29.6135 6.81479C29.6204 6.81479 29.629 6.81479 29.6359 6.81307C29.6204 6.80449 29.6101 6.79762 29.5122 6.77186C29.4538 6.75812 29.4263 6.74953 29.416 6.74609C29.4349 6.74609 29.4349 6.74609 29.4847 6.7564C29.483 6.7564 29.483 6.75468 29.4813 6.75468L29.5431 6.7667Z" fill="#0E9DD8"/>
<path d="M21.7363 9.48029C21.7071 9.51464 21.6761 9.52666 21.6624 9.53182L21.6401 9.54384C21.5903 9.56101 21.5817 9.5301 21.5937 9.5009C21.616 9.44594 21.7105 9.40301 21.7466 9.40644C21.7895 9.41675 21.7448 9.46999 21.7363 9.48029Z" fill="#0E9DD8"/>
<path d="M21.5863 9.33635C21.5743 9.34837 21.5743 9.34837 21.5399 9.36726C21.4816 9.40333 21.4506 9.36211 21.4609 9.33291C21.4678 9.3123 21.4678 9.3123 21.5417 9.2728C21.5709 9.25734 21.5846 9.25391 21.6018 9.25391C21.6361 9.26249 21.6086 9.3123 21.5863 9.33635Z" fill="#0E9DD8"/>
<path d="M23.0398 7.52613C22.9831 7.55361 22.9505 7.55361 22.9556 7.53472C22.9676 7.49522 23.1411 7.4248 23.1754 7.42996C23.1875 7.43339 23.172 7.45056 23.1308 7.47804C23.1274 7.47804 23.1239 7.47633 23.1205 7.47633C23.0827 7.50552 23.0466 7.5227 23.0398 7.52613Z" fill="#0E9DD8"/>
<path d="M23.1218 7.39186C23.1064 7.39873 23.0651 7.4159 22.9913 7.4451H22.9896C22.8711 7.49147 22.8711 7.49147 22.8127 7.48804C22.8161 7.48117 22.8161 7.47945 22.8659 7.45369C22.9226 7.42449 22.9432 7.41247 22.9449 7.40216C22.9381 7.39701 22.9003 7.38842 22.8573 7.4056H22.8556C22.8195 7.41934 22.8058 7.42449 22.7113 7.46399C22.6238 7.50006 22.5946 7.51208 22.5808 7.5138C22.5808 7.51208 22.5791 7.51208 22.5791 7.51036C22.6255 7.47602 23.0308 7.30427 23.0737 7.29225L23.0823 7.28881C23.1235 7.27679 23.1235 7.27679 23.2627 7.30599C23.2644 7.3077 23.2661 7.30942 23.2661 7.31114C23.2403 7.34034 23.1218 7.39186 23.1218 7.39186Z" fill="#0E9DD8"/>
<path d="M22.4432 7.76082C22.3676 7.80719 22.3676 7.80719 22.1925 7.88791H22.1942C22.1598 7.90337 22.1238 7.91367 22.0894 7.92913L22.0671 7.93771C22.0413 7.9463 22.0362 7.9463 22.0293 7.9463C22.0293 7.93771 22.031 7.91539 22.2886 7.76082C22.3041 7.75223 22.3058 7.74879 22.3058 7.74536C22.2749 7.73162 22.2457 7.7694 22.2148 7.74879C22.232 7.7196 22.3882 7.63544 22.4621 7.6114L22.4673 7.60968C22.4827 7.60453 22.5016 7.59766 22.5153 7.59766C22.5171 7.59766 22.5188 7.59766 22.5188 7.59766C22.5342 7.59937 22.5325 7.62342 22.5497 7.61998C22.6356 7.60453 22.6356 7.60453 22.651 7.60796C22.6699 7.61483 22.6562 7.62685 22.6493 7.63201C22.6356 7.64231 22.6046 7.66635 22.4449 7.76253C22.4484 7.76253 22.4466 7.76082 22.4432 7.76082Z" fill="#0E9DD8"/>
<path d="M20.7275 21.5014C20.755 21.4928 20.7773 21.4911 20.8083 21.4928C20.8409 21.4962 20.8598 21.4997 20.889 21.5117C20.834 21.5082 20.7808 21.5048 20.7275 21.5014Z" fill="#0E9DD8"/>
<path d="M35.3004 26.0681L35.1338 26.2467C35.187 26.19 35.3519 26.0149 35.5168 25.8242L35.3004 26.0681Z" fill="#0E9DD8"/>
<path d="M26.7847 6.81867C26.7916 6.82383 26.7985 6.83241 26.8053 6.83757C26.8036 6.83757 26.8036 6.83757 26.8019 6.83757C26.8397 6.87707 26.8397 6.87707 26.886 7.06599C26.8843 7.06599 26.8843 7.06599 26.8843 7.06599C26.8929 7.10549 26.8963 7.11923 26.9032 7.16904C26.9049 7.16904 26.9049 7.16904 26.9067 7.16904V7.17591C26.9135 7.24289 26.9238 7.27209 26.9616 7.33392C26.9582 7.33392 26.9547 7.33392 26.953 7.33392L26.9736 7.36311C27.0045 7.4009 27.0544 7.41292 27.0904 7.44555C27.0921 7.44555 27.0939 7.44555 27.0956 7.44555C27.1007 7.54173 27.1007 7.54173 27.1402 7.63447C27.1368 7.63447 27.1334 7.63447 27.1316 7.63447C27.1488 7.67569 27.154 7.68943 27.19 7.76672C27.1935 7.76672 27.1986 7.76672 27.2021 7.76672C27.2072 7.77874 27.2141 7.79076 27.2192 7.8045C27.2209 7.80622 27.2209 7.80965 27.2227 7.81309C27.2244 7.82339 27.2227 7.84057 27.2175 7.84916C27.1282 7.8732 27.0664 7.74782 26.9702 7.80278C26.965 7.82683 26.9582 7.86461 27.032 7.98999C27.0269 7.98999 27.0217 7.98999 27.0166 7.98999L27.0303 8.01232C27.0544 8.05353 27.0767 8.09475 27.1024 8.13426C27.1076 8.13426 27.1127 8.13426 27.1196 8.13426L27.1351 8.15658C27.2313 8.30772 27.1265 8.36783 27.0698 8.35409C27.0286 8.34379 26.9891 8.28367 26.9771 8.23215C26.9685 8.19608 26.9513 8.12739 26.7813 8.05353C26.7778 8.05869 26.771 8.06384 26.7675 8.06727C26.7727 8.09991 26.7744 8.10849 26.7864 8.14971C26.7916 8.14971 26.7967 8.14971 26.8019 8.14971C26.8397 8.25963 26.9565 8.29226 27.0234 8.37298C27.0166 8.37298 27.0097 8.37298 27.0028 8.3747C27.0629 8.44512 27.0629 8.44512 27.0612 8.46229C27.0561 8.46573 27.0492 8.47088 27.044 8.47431C27.0063 8.49149 26.965 8.46916 26.929 8.48462C26.838 8.52584 26.7761 8.60999 26.6782 8.63919C26.6044 8.66152 26.5374 8.65808 26.4343 8.65121C26.376 8.64778 26.376 8.64778 26.3468 8.65637C26.3227 8.69243 26.3107 8.71132 26.2712 8.80922C26.2678 8.80922 26.2643 8.80922 26.2609 8.80922C26.2506 8.83326 26.242 8.85731 26.2317 8.88135C26.187 8.99471 26.187 8.99471 26.017 8.97581C25.9036 8.96379 25.9037 8.96379 25.7783 9.05654C25.5997 9.18706 25.5997 9.18706 25.6048 9.26435C25.5979 9.26435 25.5928 9.26435 25.5859 9.26435C25.5979 9.44297 25.5979 9.44297 25.4262 9.45671C25.373 9.5443 25.3815 9.64734 25.3558 9.74181C25.3506 9.74181 25.3455 9.74181 25.3386 9.74181C25.3094 9.84314 25.2854 9.86546 25.2064 9.94103H25.2081L25.2046 9.94275C25.0277 10.0887 25.0157 9.98053 24.9934 9.78302C24.9075 9.77272 24.868 9.89294 24.7753 9.86203C24.7203 9.72635 24.5846 9.64048 24.5469 9.49277C24.4885 9.26092 24.5331 9.23515 24.607 9.19393L24.6052 9.19222C24.3304 9.07199 24.5503 8.71819 24.6344 8.63404C24.6877 8.5808 24.6877 8.5808 24.6825 8.55504C24.6516 8.5413 24.6516 8.5413 24.5967 8.53958C24.5314 8.42622 24.7976 8.18406 24.8594 8.20124C24.8646 8.20295 24.8646 8.20295 24.8646 8.20295C24.8663 8.20295 24.8663 8.20295 24.868 8.20295C24.8697 8.20295 24.8715 8.20295 24.8732 8.20295C24.8749 8.20295 24.8783 8.20295 24.88 8.20295C24.8835 8.20295 24.8869 8.20295 24.8886 8.20295C24.8921 8.20295 24.8955 8.20295 24.8989 8.20295C24.9024 8.20295 24.9058 8.20295 24.911 8.20295C24.9144 8.20295 24.9195 8.20295 24.923 8.20295C24.9281 8.21669 24.9384 8.25276 24.8405 8.39875C24.8371 8.39875 24.8337 8.39875 24.8302 8.39875L24.8216 8.41248C24.8131 8.42622 24.8045 8.44512 24.801 8.46057C24.8113 8.47603 24.8268 8.48977 24.8371 8.50695C24.959 8.46057 24.99 8.12395 24.9075 8.09304C24.868 8.07758 24.8663 8.08101 24.7856 8.16345C24.7873 8.16345 24.789 8.16345 24.7907 8.16345C24.7031 8.24933 24.6842 8.25791 24.6533 8.26994C24.6774 8.07071 24.9144 7.96594 24.8835 7.74267C24.8629 7.59325 24.8337 7.58982 24.5554 7.5589C24.5537 7.55203 24.552 7.54345 24.5503 7.53658C24.5657 7.51425 24.5846 7.48505 24.6739 7.40777C24.6602 7.41807 24.6413 7.43181 24.6259 7.44212C24.6138 7.45242 24.6155 7.45242 24.619 7.45242C24.4661 7.56749 24.4249 7.59669 24.3596 7.60699C24.3579 7.60012 24.3562 7.59154 24.3545 7.58467C24.4627 7.42151 24.4627 7.42151 24.461 7.41464C24.4558 7.41292 24.449 7.4112 24.4421 7.40948C24.4386 7.40948 24.4387 7.40948 24.4369 7.40948C24.4352 7.40948 24.4369 7.40948 24.4369 7.40948C24.4318 7.40605 24.4249 7.40261 24.4198 7.39918C24.4404 7.35968 24.4627 7.33907 24.528 7.32189C24.5365 7.32018 24.5314 7.31846 24.5262 7.31846C24.8405 7.24632 25.0999 7.05225 25.397 6.94061C25.409 6.9389 25.4142 6.9389 25.4193 6.9389L25.4176 6.94233C25.4365 6.9492 25.4485 6.95264 25.5241 6.89424C25.5636 6.86333 25.7508 6.76715 25.8298 6.78948C25.8281 6.8015 25.8246 6.81524 25.8246 6.82726C25.8487 6.82898 25.8607 6.8307 25.9105 6.79463C25.9723 6.74311 26.0256 6.68128 26.0977 6.64178L26.1012 6.64006C26.0943 6.65208 26.0823 6.66582 26.072 6.67612C26.0702 6.67612 26.0702 6.67612 26.0685 6.67612C26.0599 6.68471 26.0496 6.69673 26.0428 6.70532C26.0943 6.67784 26.1321 6.63147 26.1802 6.59884L26.1819 6.59712C26.187 6.59369 26.1922 6.59025 26.1973 6.58853C26.2059 6.58338 26.2059 6.58338 26.2059 6.58338C26.2282 6.56621 26.2489 6.54731 26.2712 6.53014C26.2712 6.53014 26.2712 6.53014 26.2695 6.53014C26.2763 6.52499 26.2849 6.5164 26.2884 6.50781C26.2884 6.51296 26.2901 6.51984 26.2901 6.52499C26.2901 6.52842 26.2901 6.52842 26.2901 6.52842C26.2969 6.53873 26.3038 6.55247 26.309 6.56449C26.2918 6.60914 26.2729 6.61601 26.254 6.61773C26.2574 6.62288 26.2626 6.62804 26.2678 6.63319C26.2866 6.62975 26.2866 6.62975 26.321 6.57995C26.3244 6.57651 26.3296 6.57136 26.3347 6.56792C26.3399 6.56964 26.3468 6.57308 26.3519 6.57479C26.3553 6.57823 26.3571 6.57823 26.3571 6.57823C26.3845 6.60914 26.388 6.6143 26.4326 6.66754C26.4326 6.66754 26.4309 6.66754 26.4292 6.66754C26.4498 6.6933 26.4498 6.6933 26.4876 6.73624C26.4893 6.73624 26.491 6.73624 26.4927 6.73624C26.5288 6.77402 26.5614 6.8118 26.5975 6.84959C26.5958 6.84959 26.5941 6.84959 26.5906 6.84959C26.6404 6.8994 26.6542 6.9097 26.6851 6.91485C26.6885 6.90798 26.6954 6.8994 26.6988 6.89253C26.6868 6.84787 26.6611 6.81009 26.6507 6.76543C26.6868 6.74654 26.771 6.80665 26.7847 6.81867Z" fill="#0E9DD8"/>
<path d="M18.9551 17.82C18.943 17.9042 18.8245 17.9368 18.773 17.8698C18.7421 17.8303 18.7421 17.7685 18.761 17.7307C18.7696 17.7152 18.7764 17.7067 18.7799 17.7015C18.7953 17.686 18.8297 17.6654 18.8314 17.6654C18.8469 17.6568 18.8658 17.6551 18.8795 17.6568C18.9104 17.662 18.931 17.674 18.9568 17.7049C18.9396 17.7032 18.9207 17.7015 18.9035 17.6998C18.9619 17.7479 18.9568 17.808 18.9551 17.82Z" fill="#0E9DD8"/>
<path d="M20.3889 19.6345C20.3803 19.7203 20.3631 19.7169 20.3528 19.7135C20.3357 19.7341 20.3357 19.7341 20.3305 19.7341C20.3168 19.7341 20.2979 19.7066 20.2756 19.674C20.2275 19.6036 20.2172 19.6053 20.1674 19.6276C19.9784 19.71 19.9784 19.71 19.9389 19.698C19.8428 19.6705 19.8101 19.5675 19.7277 19.5246C19.7088 19.5143 19.6813 19.5057 19.659 19.5039C19.6212 19.4988 19.5422 19.4885 19.4014 19.437C19.6968 19.0488 19.7809 19.0523 19.9819 19.0608C20.1588 19.078 20.2738 19.2188 20.3254 19.303C20.3116 19.3013 20.2962 19.3013 20.2824 19.2996C20.3425 19.3992 20.3631 19.473 20.3631 19.6018C20.3717 19.6018 20.382 19.6036 20.3906 19.6036C20.3906 19.6139 20.3906 19.6242 20.3889 19.6345Z" fill="#0E9DD8"/>
<path d="M18.9998 19.7401C18.9981 19.8312 18.9723 19.8518 18.9002 19.905C18.7731 19.9514 18.737 19.6886 18.7851 19.5856C18.7971 19.5615 18.7971 19.5615 18.8607 19.5134C18.8693 19.5117 18.8727 19.5117 18.8796 19.5117C18.9603 19.5272 19.0015 19.6543 18.9998 19.7401Z" fill="#0E9DD8"/>
<path d="M22.3821 30.3998C20.0858 31.3032 17.8737 31.9679 15.8093 32.3801C15.3439 32.0314 14.8991 31.6622 14.4766 31.2757C16.6303 30.8841 18.5727 30.2624 20.3709 29.5273C21.0115 29.876 21.6831 30.1662 22.3821 30.3998Z" fill="url(#paint1_linear_2047_239)"/>
<path d="M20.2285 29.4412C20.2285 29.4412 20.2285 29.4463 20.2336 29.4463C18.4457 30.1694 16.5033 30.7877 14.3599 31.1621C14.3547 31.1621 14.3547 31.1569 14.3547 31.1569C13.7519 30.597 13.1903 29.9959 12.6768 29.3622C13.3655 29.3364 14.0215 29.2729 14.6244 29.1939C14.7944 29.1733 14.9524 29.1458 15.1104 29.1252C15.2684 29.0994 15.423 29.0771 15.5707 29.0513C15.7184 29.0256 15.8558 28.9981 15.9932 28.9723C17.0838 28.7714 17.7759 28.5653 17.7759 28.5653C17.7759 28.5653 18.0353 28.476 18.5058 28.3008C19.0486 28.7284 19.6188 29.108 20.2285 29.4412Z" fill="url(#paint2_linear_2047_239)"/>
<path d="M19.3235 33.7525C19.059 33.847 18.7946 33.9329 18.5352 34.017C18.5146 34.0222 18.4923 34.0325 18.4717 34.0376C17.5872 33.5894 16.7473 33.0707 15.9573 32.4902C15.9573 32.4902 15.9521 32.4902 15.9521 32.4851C16.1222 32.4541 16.2905 32.4164 16.4605 32.3803C16.6872 32.3322 16.9156 32.2807 17.1424 32.2223C17.3759 32.169 17.6026 32.1106 17.8362 32.0488C18.518 31.8685 19.2068 31.6641 19.9006 31.4357C19.9315 31.4305 19.9693 31.4202 20.0019 31.4048C20.4622 31.2571 20.9225 31.0939 21.3879 30.9239C21.6267 30.8346 21.8688 30.7435 22.1127 30.6491C22.2656 30.5907 22.4201 30.5323 22.573 30.4688C22.573 30.4688 22.5781 30.4688 22.5833 30.4688C23.6052 30.8019 24.6889 31.0029 25.8053 31.0647C25.7898 31.075 25.7675 31.0802 25.752 31.0853C25.4446 31.2382 25.144 31.3807 24.8366 31.5181C24.5189 31.6658 24.2011 31.8135 23.8834 31.9509C23.5657 32.0935 23.248 32.2309 22.9354 32.3631C22.3102 32.6276 21.6971 32.8749 21.0942 33.1068C20.792 33.2236 20.4914 33.3335 20.1994 33.44C19.9058 33.5516 19.6138 33.6529 19.3235 33.7525Z" fill="url(#paint3_linear_2047_239)"/>
<path d="M13.569 18.1464C13.569 10.9966 19.3792 5.19839 26.5445 5.19839C30.4981 5.19839 34.0378 6.96739 36.42 9.74968H42.2989C39.2933 4.14215 33.3612 0.324219 26.5445 0.324219C16.6811 0.324219 8.68457 8.30358 8.68457 18.1447C8.68457 22.337 10.1393 26.1979 12.5746 29.2447C15.3587 29.1399 17.7133 28.4529 17.7339 28.4478C17.7494 28.4426 17.9778 28.3636 18.3848 28.2056C15.448 25.8389 13.569 22.2116 13.569 18.1464ZM26.5462 31.0875C26.3814 31.0875 26.2182 31.0824 26.0602 31.0772C23.4771 32.3344 20.949 33.3632 18.6356 34.1188C21.0177 35.3022 23.7055 35.9617 26.5462 35.9617C33.1551 35.9617 38.9292 32.3756 42.0138 27.048H35.9597C33.5947 29.5349 30.2491 31.0875 26.5462 31.0875Z" fill="url(#paint4_linear_2047_239)"/>
<path d="M43.7566 11.1456C41.596 14.213 40.1516 15.9288 39.4698 16.5591C39.2156 16.7892 38.9734 17.0331 38.7295 17.2821C38.6282 17.3869 38.5063 17.5088 38.3689 17.6514C38.3654 17.6514 38.3654 17.6582 38.3586 17.6634C38.2899 17.7321 38.2109 17.8059 38.1319 17.8832C38.0786 17.9365 38.0271 17.9949 37.967 18.0464C36.8506 19.1335 34.982 20.8338 32.5638 22.62C32.4488 22.7093 32.3302 22.7935 32.2083 22.8828C32.1825 22.8982 32.1516 22.9206 32.1224 22.9412C30.8378 23.8652 29.4071 24.8063 27.8631 25.6823C27.5505 25.8403 27.238 26.0086 26.9151 26.1717C26.7777 26.2507 26.6283 26.3263 26.4874 26.4053C26.1851 26.5633 25.8794 26.7265 25.5703 26.8845C24.6618 27.3705 23.7137 27.8617 22.7244 28.3323V28.3392C22.6935 28.3598 22.6609 28.3701 22.6283 28.3821C22.3123 28.5333 21.9894 28.6878 21.6613 28.8355L21.6545 28.839H21.651C21.6081 28.8613 21.56 28.8819 21.5171 28.8974C21.1907 29.0451 20.8558 29.1893 20.5175 29.325C20.4248 29.3679 20.3234 29.4057 20.2272 29.4418C18.4376 30.1648 16.4969 30.7814 14.3535 31.1593C13.9825 31.2262 13.6013 31.2915 13.2148 31.343C13.208 31.3465 13.208 31.3465 13.2045 31.343C11.9542 31.5062 10.6386 31.5955 9.2406 31.5766C1.15476 31.465 0.481517 23.556 5.7009 16.7171C5.70777 16.7068 5.71636 16.7016 5.72666 16.7016C5.74899 16.7016 5.7696 16.7222 5.7593 16.748C4.8061 18.4174 1.82801 24.3117 5.31447 27.4049C5.41924 27.4993 5.53603 27.5886 5.64766 27.6797C5.99287 27.9424 6.35698 28.1691 6.74341 28.3598C7.00274 28.492 7.26723 28.602 7.53688 28.7084C7.80652 28.8098 8.08818 28.8939 8.36813 28.9729C8.65495 29.0451 8.94005 29.1103 9.2303 29.1636C10.0993 29.3216 10.9941 29.3834 11.8597 29.3834C12.1363 29.3834 12.4111 29.38 12.6755 29.3628C13.3625 29.337 14.0186 29.2718 14.6232 29.1928C14.7915 29.1721 14.9512 29.1464 15.1109 29.1241C15.2689 29.0983 15.4235 29.0777 15.5712 29.0519C15.7189 29.0262 15.858 28.9987 15.9937 28.9729C17.086 28.772 17.7764 28.5659 17.7764 28.5659C17.7764 28.5659 18.0358 28.4766 18.5063 28.3014C18.8413 28.1691 19.2895 28.0026 19.8185 27.7844C20.3114 27.5835 20.8782 27.3448 21.5016 27.0751C22.8447 26.4843 24.4591 25.7286 26.204 24.8166C27.8391 23.951 29.5823 22.948 31.3101 21.8059C33.481 20.3753 35.6295 18.7334 37.5084 16.8854C37.5771 16.8167 37.651 16.748 37.7197 16.6741C37.7626 16.6312 37.8055 16.5951 37.8468 16.547C37.9687 16.432 38.0906 16.31 38.2057 16.1881V16.1812H38.2126C44.8849 9.46077 45.912 5.91763 46.2778 3.44619C46.2881 3.39295 46.331 3.36719 46.374 3.36719C46.3946 3.36719 46.41 3.37406 46.4272 3.38264L46.4307 3.38608C46.4375 3.38608 46.4427 3.39295 46.4427 3.3981C46.453 3.40841 46.4564 3.41871 46.4633 3.43417C46.6728 4.20875 46.7518 6.39852 43.7566 11.1456Z" fill="url(#paint5_linear_2047_239)"/>
<path d="M32.124 22.9404C32.136 22.9473 32.1464 22.9473 32.1532 22.9473C32.167 22.925 32.1893 22.9044 32.2099 22.882C32.1824 22.8992 32.1515 22.9215 32.124 22.9404ZM38.3687 17.6489C38.3653 17.6489 38.3653 17.6558 38.3584 17.6609C38.3653 17.7039 38.3687 17.7434 38.3687 17.7863C38.3739 17.7399 38.3687 17.6987 38.3687 17.6489ZM38.2107 16.1719C38.2107 16.1719 38.2107 16.1787 38.2107 16.1822H38.2176C38.2159 16.177 38.2159 16.177 38.2107 16.1719Z" fill="white"/>
<path d="M42.0144 19.7595C41.8032 19.981 41.5919 20.1974 41.3687 20.4138C41.2038 20.5821 41.0355 20.7522 40.8603 20.9153C40.5855 21.1798 40.3107 21.4374 40.0239 21.6968C39.8332 21.8651 39.6426 22.0403 39.4468 22.2137C39.1497 22.4782 38.844 22.7358 38.5314 22.9952C38.315 23.1755 38.0969 23.3541 37.8805 23.5293C37.6418 23.72 37.4099 23.9089 37.166 24.0944C36.9067 24.3005 36.6422 24.4963 36.3777 24.6955C36.3519 24.7212 36.3193 24.7436 36.2884 24.7642C35.6426 25.2451 34.9814 25.7191 34.3099 26.1742C34.0883 26.3271 33.8599 26.4748 33.6383 26.6225C33.6383 26.6225 33.6332 26.6225 33.6332 26.6276C33.2416 26.887 32.85 27.1394 32.4584 27.3885C32.0823 27.6255 31.701 27.8591 31.3215 28.0858C31.1205 28.2129 30.9196 28.3279 30.7135 28.4499C30.4164 28.6233 30.1261 28.7934 29.829 28.9565C29.6074 29.0836 29.3893 29.2038 29.1729 29.3258C28.893 29.4786 28.6165 29.6315 28.3365 29.7792C28.3262 29.7843 28.3211 29.7895 28.3107 29.7946C27.9449 29.9904 27.5757 30.1794 27.2099 30.3648C26.7393 30.607 26.2738 30.8406 25.8067 31.0621C25.7912 31.0724 25.7689 31.0776 25.7534 31.0827C25.446 31.2356 25.1455 31.3781 24.838 31.5155C24.5203 31.6632 24.2026 31.8109 23.8848 31.9483C23.5671 32.0909 23.2494 32.2283 22.9368 32.3605C22.3116 32.625 21.6985 32.8723 21.0957 33.1042C20.7934 33.221 20.4928 33.3309 20.2009 33.4374C19.9037 33.549 19.6135 33.6486 19.3232 33.7483C19.0587 33.8427 18.7943 33.9286 18.5349 34.0127C18.5143 34.0179 18.492 34.0282 18.4714 34.0334C18.3443 34.0763 18.2172 34.1175 18.0901 34.1553C17.8737 34.224 17.6607 34.2927 17.4495 34.3562C17.1747 34.4352 16.9102 34.5142 16.6457 34.5829C16.4121 34.6465 16.1854 34.7049 15.957 34.7633C13.9939 35.2596 11.7921 35.5756 9.67106 35.5756C9.28979 35.5756 8.90851 35.5653 8.53925 35.5447C8.3864 35.5344 8.23698 35.5241 8.08928 35.5138C7.89348 35.4984 7.69769 35.4829 7.50705 35.4554C7.20478 35.4245 6.91453 35.3816 6.62256 35.3283C6.27391 35.2648 5.93385 35.1909 5.60066 35.1068C5.32587 35.0381 5.05107 34.9539 4.78487 34.8646H4.77971C4.57877 34.7959 4.38813 34.7221 4.19749 34.6431C4.00685 34.5641 3.82137 34.4799 3.63588 34.3889C3.27521 34.2085 2.93172 34.0093 2.61399 33.7757C2.50235 33.6967 2.39759 33.6177 2.29626 33.5387C2.09531 33.3704 1.90467 33.2004 1.72434 33.0166C1.59209 32.8792 1.45985 32.7315 1.34306 32.5787C1.27951 32.5048 1.22112 32.4258 1.16788 32.3468C0.765991 31.7869 0.458564 31.148 0.262773 30.4146C0.231858 30.3099 0.204379 30.2034 0.183769 30.0986C0.130528 29.8822 0.0944607 29.6555 0.0669812 29.4219C0.0566764 29.3378 0.0463716 29.2485 0.0412192 29.1575C0.025762 29.0527 0.0206096 28.9411 0.0154572 28.8294C0.00515243 28.6663 0 28.5014 0 28.3331C0 27.6942 0.0635463 26.9969 0.195791 26.2532C1.56633 20.6457 4.25417 17.4134 5.29667 16.2782C5.31728 16.2524 5.34991 16.2576 5.37052 16.2782C5.38598 16.2936 5.39113 16.3211 5.37568 16.3366C3.35937 18.9128 -3.29239 30.1347 8.06351 32.668C8.19061 32.6937 8.31255 32.7212 8.44479 32.747C8.59249 32.7727 8.73504 32.8002 8.88962 32.8208C9.00125 32.8363 9.11117 32.8517 9.21765 32.8689C9.36535 32.8947 9.51477 32.9118 9.66763 32.9222C9.78442 32.9325 9.90636 32.9428 10.0214 32.9479C10.2962 32.9737 10.571 32.9908 10.8527 32.9908C10.9214 32.996 10.9901 32.996 11.0639 32.996C11.349 33.0012 11.6358 32.996 11.9261 32.9857C11.9519 32.9857 11.9793 32.9857 12.0051 32.9805C12.3812 32.9702 12.7574 32.9428 13.1421 32.9067C13.3585 32.8861 13.5714 32.8638 13.7878 32.838C14.0042 32.8174 14.2224 32.7848 14.4439 32.7538C14.9368 32.68 15.4383 32.5907 15.9467 32.4842C16.1167 32.4533 16.285 32.4155 16.4551 32.3794C16.6818 32.3313 16.9102 32.2798 17.1369 32.2214C17.3705 32.1682 17.5972 32.1098 17.8308 32.048C18.5126 31.8676 19.2013 31.6632 19.8952 31.4348C19.9261 31.4297 19.9639 31.4194 19.9965 31.4039C20.4568 31.2562 20.917 31.093 21.3825 30.923C21.6212 30.8337 21.8634 30.7427 22.1073 30.6482C22.2601 30.5898 22.4147 30.5314 22.5675 30.4679C22.6517 30.437 22.7427 30.3992 22.832 30.3614C23.0759 30.2669 23.3181 30.1656 23.5619 30.0608C23.8058 29.9664 24.048 29.8599 24.2919 29.75C24.3228 29.7397 24.3503 29.7242 24.3812 29.7071H24.3915C24.4293 29.6916 24.4653 29.6761 24.5031 29.6538H24.5083C24.6835 29.58 24.8569 29.501 25.0269 29.4168H25.0321C25.0424 29.4168 25.0527 29.4116 25.0647 29.4013C25.0699 29.4065 25.0699 29.4065 25.0699 29.4013C25.1643 29.3533 25.2657 29.312 25.3601 29.2639C25.4924 29.2055 25.6246 29.142 25.7569 29.0785C26.0008 28.9617 26.2429 28.8466 26.4919 28.7247C26.978 28.4876 27.4709 28.2386 27.9569 27.9861C28.3279 27.7904 28.692 27.5946 29.0578 27.3953C29.4237 27.1944 29.7878 26.9883 30.1536 26.7822C30.6465 26.5023 31.1325 26.212 31.6203 25.9114C31.859 25.7689 32.0909 25.6263 32.3245 25.4786C32.8054 25.1832 33.2828 24.8775 33.7534 24.5649C34.0127 24.3915 34.2772 24.2163 34.5366 24.0428C34.9865 23.7371 35.4314 23.4246 35.8762 23.1137C36.0874 22.9608 36.3004 22.808 36.5117 22.6551C36.7504 22.4817 36.9874 22.3013 37.2261 22.1279C37.4271 21.975 37.628 21.8273 37.8238 21.6745V21.6693C37.829 21.6693 37.8341 21.6641 37.8393 21.659C38.0831 21.4735 38.3253 21.2897 38.564 21.0991C39.0037 20.7505 39.4365 20.3967 39.8659 20.0429C40.2952 19.6891 40.7177 19.325 41.1299 18.966C41.5421 18.6019 41.9509 18.2378 42.3528 17.8685C42.5537 17.6831 42.7495 17.4941 42.9453 17.3086C43.1359 17.1232 43.3317 16.9394 43.5224 16.7488C43.713 16.5633 43.9036 16.3795 44.0891 16.1889C44.2746 15.9982 44.4601 15.8093 44.6456 15.6187C44.9204 15.3336 45.1952 15.0382 45.4545 14.7479C47.8195 12.1717 49.7259 9.51993 50.9745 6.94372C51.1376 6.60538 51.3025 6.27391 51.4777 5.94072C51.8847 5.17473 52.8328 2.73593 52.8688 0.0429367C52.8688 0.0171747 52.8894 0 52.9118 0C52.9272 0 52.9495 0.0103049 52.9495 0.0309145C53.2553 1.60583 53.8152 8.88103 42.0144 19.7595Z" fill="url(#paint6_linear_2047_239)"/>
<path d="M37.8924 21.4664C37.8701 21.5454 37.8546 21.6038 37.8271 21.6673C37.834 21.6673 37.8375 21.6604 37.8426 21.657C37.8649 21.5883 37.8855 21.523 37.901 21.4612C37.9027 21.4595 37.8976 21.4664 37.8924 21.4664Z" fill="white"/>
<path d="M60.9356 28.0783C57.8562 29.2874 52.0992 30.6202 52.0992 30.6202L61.4509 11.3759L67.1597 23.4858C67.5444 24.3033 68.5457 24.5764 69.3203 24.1127C69.9283 23.7486 70.641 23.539 71.4019 23.539C72.106 23.539 73.0163 24.0526 73.5934 24.3772L61.4491 0.265625L44.0684 35.9581H47.2182H47.8124C48.8996 35.9581 50.2822 35.1869 51.3229 34.876C53.3839 34.2578 57.5247 33.0864 63.6733 31.6747C72.8394 29.5674 79.6646 35.9598 79.6646 35.9598C73.9111 26.2561 64.9339 26.5085 60.9356 28.0783Z" fill="url(#paint7_linear_2047_239)"/>
<path d="M86.4322 0.336853C86.4322 0.336853 78.1557 1.0496 78.2467 6.57126C78.3395 12.0929 87.2961 14.0474 90.4425 15.7391C93.5889 17.4308 101.163 20.7077 99.849 27.9194C98.5352 35.131 87.193 35.9245 86.0165 35.9589C86.0165 35.9589 97.2556 35.4076 93.9701 26.4012C91.8954 22.3754 82.719 20.5343 78.5696 17.7743C74.4202 15.0143 69.6697 10.9645 74.9732 4.15479C79.1467 -0.0993835 86.4322 0.336853 86.4322 0.336853Z" fill="url(#paint8_linear_2047_239)"/>
<defs>
<radialGradient id="paint0_radial_2047_239" cx="0" cy="0" r="1" gradientUnits="userSpaceOnUse" gradientTransform="translate(27.1703 15.7835) scale(14.5125 14.4805)">
<stop stop-color="white"/>
<stop offset="0.803" stop-color="#D7D7D7"/>
<stop offset="1" stop-color="white"/>
</radialGradient>
<linearGradient id="paint1_linear_2047_239" x1="17.7331" y1="29.1485" x2="18.8022" y2="31.7451" gradientUnits="userSpaceOnUse">
<stop stop-color="#264391"/>
<stop offset="0.1753" stop-color="#264996"/>
<stop offset="0.41" stop-color="#265AA3"/>
<stop offset="0.6784" stop-color="#2776B9"/>
<stop offset="0.9698" stop-color="#289DD7"/>
<stop offset="1" stop-color="#28A1DB"/>
</linearGradient>
<linearGradient id="paint2_linear_2047_239" x1="15.5203" y1="27.1353" x2="16.9568" y2="30.6239" gradientUnits="userSpaceOnUse">
<stop stop-color="#264391"/>
<stop offset="0.1753" stop-color="#264996"/>
<stop offset="0.41" stop-color="#265AA3"/>
<stop offset="0.6784" stop-color="#2776B9"/>
<stop offset="0.9698" stop-color="#289DD7"/>
<stop offset="1" stop-color="#28A1DB"/>
</linearGradient>
<linearGradient id="paint3_linear_2047_239" x1="20.0937" y1="29.8686" x2="21.3333" y2="32.879" gradientUnits="userSpaceOnUse">
<stop stop-color="#264391"/>
<stop offset="0.1753" stop-color="#264996"/>
<stop offset="0.41" stop-color="#265AA3"/>
<stop offset="0.6784" stop-color="#2776B9"/>
<stop offset="0.9698" stop-color="#289DD7"/>
<stop offset="1" stop-color="#28A1DB"/>
</linearGradient>
<linearGradient id="paint4_linear_2047_239" x1="15.228" y1="-9.21725" x2="32.5594" y2="32.8733" gradientUnits="userSpaceOnUse">
<stop stop-color="#264391"/>
<stop offset="0.1753" stop-color="#264996"/>
<stop offset="0.41" stop-color="#265AA3"/>
<stop offset="0.6784" stop-color="#2776B9"/>
<stop offset="0.9698" stop-color="#289DD7"/>
<stop offset="1" stop-color="#28A1DB"/>
</linearGradient>
<linearGradient id="paint5_linear_2047_239" x1="27.3667" y1="27.4256" x2="25.9719" y2="21.466" gradientUnits="userSpaceOnUse">
<stop stop-color="#0D4E8A"/>
<stop offset="0.2082" stop-color="#125290"/>
<stop offset="0.4863" stop-color="#205EA1"/>
<stop offset="0.5888" stop-color="#2763A9"/>
<stop offset="0.8209" stop-color="#156DB3"/>
<stop offset="1" stop-color="#0477BD"/>
</linearGradient>
<linearGradient id="paint6_linear_2047_239" x1="30.7005" y1="30.2199" x2="27.847" y2="19.7571" gradientUnits="userSpaceOnUse">
<stop stop-color="#0D4E8A"/>
<stop offset="0.2082" stop-color="#125290"/>
<stop offset="0.4863" stop-color="#205EA1"/>
<stop offset="0.5888" stop-color="#2763A9"/>
<stop offset="0.8209" stop-color="#156DB3"/>
<stop offset="1" stop-color="#0477BD"/>
</linearGradient>
<linearGradient id="paint7_linear_2047_239" x1="53.3475" y1="12.0527" x2="62.131" y2="36.6991" gradientUnits="userSpaceOnUse">
<stop stop-color="#264391"/>
<stop offset="0.1753" stop-color="#264996"/>
<stop offset="0.41" stop-color="#265AA3"/>
<stop offset="0.6784" stop-color="#2776B9"/>
<stop offset="0.9698" stop-color="#289DD7"/>
<stop offset="1" stop-color="#28A1DB"/>
</linearGradient>
<linearGradient id="paint8_linear_2047_239" x1="80.7524" y1="2.30033" x2="89.5355" y2="26.9452" gradientUnits="userSpaceOnUse">
<stop stop-color="#264391"/>
<stop offset="0.1753" stop-color="#264996"/>
<stop offset="0.41" stop-color="#265AA3"/>
<stop offset="0.6784" stop-color="#2776B9"/>
<stop offset="0.9698" stop-color="#289DD7"/>
<stop offset="1" stop-color="#28A1DB"/>
</linearGradient>
</defs>
</svg>
